<?xml version="1.0" encoding="UTF-8"?>
<!DOCTYPE svg PUBLIC "-//W3C//DTD SVG 1.1//EN" "http://www.w3.org/Graphics/SVG/1.1/DTD/svg11.dtd">
<!-- Creator: CorelDRAW 2019 (64-Bit) -->
<svg xmlns="http://www.w3.org/2000/svg" xml:space="preserve" width="1.52866in" height="1.61207in" version="1.1" style="shape-rendering:geometricPrecision; text-rendering:geometricPrecision; image-rendering:optimizeQuality; fill-rule:evenodd; clip-rule:evenodd"
viewBox="0 0 29.94 31.58"
 xmlns:xlink="http://www.w3.org/1999/xlink"
 xmlns:xodm="http://www.corel.com/coreldraw/odm/2003">
 <defs>
  <style type="text/css">
   <![CDATA[
    .fil0 {fill:black}
    .fil2 {fill:#EEEEEE}
    .fil1 {fill:#FEFEFE}
   ]]>
  </style>
 </defs>
 <g id="Layer_x0020_1">
  <metadata id="CorelCorpID_0Corel-Layer"/>
  <g id="_2689417963024">
   <path class="fil0" d="M12.11 1.11c0.32,-0.49 0.78,-0.98 1.4,-1.03 0.69,-0.05 1.16,0.44 1.5,1.05 0.31,-0.52 0.76,-1.05 1.39,-1.11 0.7,-0.07 1.2,0.43 1.55,1.04 0.33,-0.47 0.8,-0.93 1.4,-0.98 0.68,-0.06 1.17,0.4 1.51,0.98 0.32,-0.45 0.77,-0.9 1.36,-0.95 0.69,-0.06 1.17,0.41 1.51,1 0.03,-0.04 0.07,-0.09 0.1,-0.13 0.36,-0.45 0.85,-0.88 1.46,-0.93 1.4,-0.11 2.02,1.78 2.3,2.83 1.18,4.35 2.08,8.92 2.31,13.42 0.11,2.02 0.08,4.06 -0.17,6.07 -0.31,2.52 -1.13,5.03 -3.22,6.62 -1.4,1.07 -2.83,1.37 -4.47,1.85 -0.62,0.18 -1.3,0.3 -1.94,0.39 -0.9,0.13 -1.82,0.22 -2.73,0.28 -2.24,0.14 -4.55,0.09 -6.78,-0.21 -1.92,-0.26 -3.88,-0.71 -5.65,-1.51 -0.76,-0.35 -1.45,-0.82 -2.03,-1.41 -4.23,-4.26 -2.85,-13.76 -1.87,-19.12 0.2,-1.1 0.42,-2.19 0.67,-3.28 0.37,-1.63 0.87,-4.77 2.39,-5.68 0.22,-0.13 0.47,-0.23 0.73,-0.25 0.72,-0.06 1.21,0.39 1.53,0.98 0.3,-0.46 0.72,-0.9 1.29,-0.97 0.55,-0.06 0.99,0.25 1.31,0.67 0.1,0.13 0.19,0.27 0.27,0.41 0.3,-0.52 0.75,-1.05 1.37,-1.11 0.7,-0.07 1.19,0.46 1.53,1.1zm-0.58 1.76c-0.13,-0.45 -0.32,-1.01 -0.57,-1.41 -0.04,-0.06 -0.19,-0.27 -0.27,-0.29 -0.16,0.02 -0.46,0.51 -0.53,0.64 -0.19,0.34 -0.37,0.77 -0.48,1.14 -0.07,0.22 -0.27,0.37 -0.5,0.37 -0.23,0 -0.43,-0.15 -0.5,-0.37 -0.15,-0.47 -0.37,-1.14 -0.68,-1.54 -0.03,-0.04 -0.18,-0.22 -0.25,-0.21 -0.17,0.02 -0.45,0.46 -0.53,0.59 -0.19,0.33 -0.37,0.74 -0.49,1.1 -0.07,0.23 -0.28,0.37 -0.52,0.36 -0.24,-0.01 -0.43,-0.18 -0.48,-0.41 -0.05,-0.26 -0.39,-1.69 -0.83,-1.65 -0.08,0.01 -0.16,0.05 -0.22,0.08 -1.04,0.62 -1.59,3.8 -1.85,4.94 -0.25,1.07 -0.46,2.15 -0.66,3.23 -0.51,2.78 -0.92,5.61 -0.99,8.44 -0.09,3.69 0.35,9.06 4.22,10.82 1.66,0.75 3.52,1.18 5.32,1.42 2.15,0.29 4.39,0.34 6.55,0.2 0.88,-0.05 1.76,-0.14 2.63,-0.27 0.59,-0.09 1.21,-0.19 1.78,-0.36 1.46,-0.43 2.83,-0.7 4.08,-1.65 1.82,-1.38 2.5,-3.65 2.77,-5.83 0.24,-1.94 0.26,-3.92 0.16,-5.87 -0.23,-4.42 -1.12,-8.91 -2.27,-13.17 -0.14,-0.53 -0.37,-1.26 -0.71,-1.7 -0.08,-0.1 -0.23,-0.27 -0.37,-0.26 -0.46,0.04 -1.09,1.15 -1.27,1.55 -0.09,0.2 -0.29,0.32 -0.51,0.31 -0.22,-0.01 -0.4,-0.15 -0.47,-0.37 -0.12,-0.39 -0.32,-0.95 -0.58,-1.27 -0.04,-0.04 -0.15,-0.18 -0.22,-0.17 -0.17,0.01 -0.43,0.36 -0.52,0.48 -0.2,0.29 -0.4,0.66 -0.52,0.99 -0.08,0.21 -0.28,0.34 -0.5,0.33 -0.23,-0.01 -0.41,-0.15 -0.48,-0.37 -0.13,-0.4 -0.32,-0.96 -0.6,-1.29 -0.04,-0.05 -0.16,-0.18 -0.24,-0.18 -0.18,0.02 -0.45,0.36 -0.54,0.49 -0.21,0.29 -0.41,0.67 -0.54,1.01 -0.08,0.21 -0.28,0.34 -0.5,0.33 -0.22,-0.01 -0.41,-0.15 -0.48,-0.36 -0.14,-0.42 -0.35,-1.01 -0.63,-1.36 -0.03,-0.04 -0.16,-0.19 -0.22,-0.18 -0.18,0.02 -0.49,0.51 -0.57,0.65 -0.2,0.35 -0.38,0.78 -0.5,1.17 -0.07,0.22 -0.27,0.37 -0.51,0.37 -0.24,-0 -0.43,-0.16 -0.49,-0.38 -0.13,-0.47 -0.33,-1.13 -0.62,-1.53 -0.03,-0.04 -0.17,-0.22 -0.23,-0.21 -0.17,0.01 -0.47,0.44 -0.55,0.57 -0.2,0.32 -0.4,0.72 -0.52,1.08 -0.08,0.22 -0.28,0.35 -0.51,0.35 -0.23,-0.01 -0.42,-0.15 -0.49,-0.37z"/>
   <path class="fil1" d="M11.54 2.87c-0.13,-0.45 -0.32,-1.01 -0.57,-1.41 -0.04,-0.06 -0.19,-0.27 -0.27,-0.29 -0.16,0.02 -0.46,0.51 -0.53,0.64 -0.19,0.34 -0.37,0.77 -0.48,1.14 -0.07,0.22 -0.27,0.37 -0.5,0.37 -0.23,0 -0.43,-0.15 -0.5,-0.37 -0.15,-0.47 -0.37,-1.14 -0.68,-1.54 -0.03,-0.04 -0.18,-0.22 -0.25,-0.21 -0.17,0.02 -0.45,0.46 -0.53,0.59 -0.19,0.33 -0.37,0.74 -0.49,1.1 -0.07,0.23 -0.28,0.37 -0.52,0.36 -0.24,-0.01 -0.43,-0.18 -0.48,-0.41 -0.05,-0.26 -0.39,-1.69 -0.83,-1.65 -0.08,0.01 -0.16,0.05 -0.22,0.08 -1.04,0.62 -1.59,3.8 -1.85,4.94 -0.25,1.07 -0.46,2.15 -0.66,3.23 -0.51,2.78 -0.92,5.61 -0.99,8.44 -0.09,3.69 0.35,9.06 4.22,10.82 1.66,0.75 3.52,1.18 5.32,1.42 2.15,0.29 4.39,0.34 6.55,0.2 0.88,-0.05 1.76,-0.14 2.63,-0.27 0.59,-0.09 1.21,-0.19 1.78,-0.36 1.46,-0.43 2.83,-0.7 4.08,-1.65 1.82,-1.38 2.5,-3.65 2.77,-5.83 0.24,-1.94 0.26,-3.92 0.16,-5.87 -0.23,-4.42 -1.12,-8.91 -2.27,-13.17 -0.14,-0.53 -0.37,-1.26 -0.71,-1.7 -0.08,-0.1 -0.23,-0.27 -0.37,-0.26 -0.46,0.04 -1.09,1.15 -1.27,1.55 -0.09,0.2 -0.29,0.32 -0.51,0.31 -0.22,-0.01 -0.4,-0.15 -0.47,-0.37 -0.12,-0.39 -0.32,-0.95 -0.58,-1.27 -0.04,-0.04 -0.15,-0.18 -0.22,-0.17 -0.17,0.01 -0.43,0.36 -0.52,0.48 -0.2,0.29 -0.4,0.66 -0.52,0.99 -0.08,0.21 -0.28,0.34 -0.5,0.33 -0.23,-0.01 -0.41,-0.15 -0.48,-0.37 -0.13,-0.4 -0.32,-0.96 -0.6,-1.29 -0.04,-0.05 -0.16,-0.18 -0.24,-0.18 -0.18,0.02 -0.45,0.36 -0.54,0.49 -0.21,0.29 -0.41,0.67 -0.54,1.01 -0.08,0.21 -0.28,0.34 -0.5,0.33 -0.22,-0.01 -0.41,-0.15 -0.48,-0.36 -0.14,-0.42 -0.35,-1.01 -0.63,-1.36 -0.03,-0.04 -0.16,-0.19 -0.22,-0.18 -0.18,0.02 -0.49,0.51 -0.57,0.65 -0.2,0.35 -0.38,0.78 -0.5,1.17 -0.07,0.22 -0.27,0.37 -0.51,0.37 -0.24,-0 -0.43,-0.16 -0.49,-0.38 -0.13,-0.47 -0.33,-1.13 -0.62,-1.53 -0.03,-0.04 -0.17,-0.22 -0.23,-0.21 -0.17,0.01 -0.47,0.44 -0.55,0.57 -0.2,0.32 -0.4,0.72 -0.52,1.08 -0.08,0.22 -0.28,0.35 -0.51,0.35 -0.23,-0.01 -0.42,-0.15 -0.49,-0.37z"/>
   <path class="fil2" d="M3.5 27.3c0.52,0.58 1.15,1.07 1.91,1.41 1.66,0.75 3.52,1.18 5.32,1.42 2.15,0.29 4.39,0.34 6.55,0.2 0.88,-0.05 1.76,-0.14 2.63,-0.27 0.59,-0.09 1.21,-0.19 1.78,-0.36 1.46,-0.43 2.83,-0.7 4.08,-1.65 1.82,-1.38 2.5,-3.65 2.77,-5.83 0.05,-0.39 0.09,-0.79 0.12,-1.19l0.01 -0.07c0.12,-1.54 0.12,-3.09 0.04,-4.62 -0.02,-0.35 -0.04,-0.7 -0.07,-1.05l-0.01 -0.19c-0.32,-4.01 -1.14,-8.06 -2.19,-11.93 -0.14,-0.53 -0.37,-1.26 -0.71,-1.7 -0.08,-0.1 -0.23,-0.27 -0.37,-0.26l-0 0c1.01,3.96 1.76,8.08 1.97,12.14 0.11,2.02 0.08,4.06 -0.17,6.07 -0.31,2.52 -1.13,5.03 -3.22,6.62 -1.4,1.07 -2.83,1.37 -4.47,1.85 -0.62,0.18 -1.3,0.3 -1.94,0.39 -0.9,0.13 -1.82,0.22 -2.73,0.28 -2.24,0.14 -4.55,0.09 -6.78,-0.21 -1.52,-0.2 -3.07,-0.53 -4.52,-1.06z"/>
   <circle class="fil0" cx="15.37" cy="15.82" r="0.51"/>
   <circle class="fil0" cx="14.08" cy="15.82" r="0.51"/>
   <path class="fil0" d="M16.6 13.94c0.17,0.84 0.38,1.27 0.97,1.89 1.48,1.58 3.45,0.48 4.82,-0.62 0.23,-0.19 0.58,-0.15 0.76,0.09 0.19,0.23 0.15,0.58 -0.09,0.76 -1.87,1.49 -4.36,2.58 -6.29,0.52 -0.73,-0.78 -1.3,-2.02 -1.52,-3.05 -0.02,-0.11 0,-0.23 0.04,-0.33 0.05,-0.15 0.18,-0.38 0.37,-0.35 0.07,0.01 0.13,0.05 0.17,0.11 0.18,0.27 0.71,0.73 0.76,1z"/>
   <path class="fil0" d="M14.23 13.52c-0.21,1.04 -0.79,2.28 -1.52,3.06 -1.93,2.06 -4.42,0.98 -6.29,-0.52 -0.23,-0.19 -0.27,-0.53 -0.09,-0.76 0.19,-0.23 0.53,-0.27 0.76,-0.09 1.38,1.1 3.34,2.2 4.82,0.62 0.58,-0.62 0.83,-1.13 1,-1.96 0.06,-0.29 0.56,-0.66 0.73,-0.93 0.04,-0.06 0.09,-0.1 0.17,-0.11 0.28,-0.03 0.46,0.46 0.41,0.69z"/>
   <g>
    <path class="fil0" d="M21.01 7.74c0.31,-0.13 0.68,-0.01 0.85,0.29 0.18,0.32 0.07,0.73 -0.25,0.92 -0.24,0.14 -0.8,0.2 -1.08,0.23 -0.54,0.07 -1.08,0.13 -1.62,0.18 -0.82,0.09 -1.65,0.16 -2.47,0.24 -0.37,0.03 -0.7,-0.24 -0.73,-0.61 -0.03,-0.37 0.24,-0.7 0.61,-0.73 0.82,-0.07 1.64,-0.15 2.45,-0.24 0.49,-0.05 0.98,-0.1 1.47,-0.17 0.22,-0.03 0.56,-0.06 0.77,-0.12z"/>
    <path class="fil0" d="M13.42 9.72c-1.55,0.09 -3.91,-0.14 -5.16,-1.12 -0.29,-0.23 -0.34,-0.65 -0.12,-0.94 0.23,-0.29 0.65,-0.34 0.94,-0.12 0.96,0.75 3.09,0.9 4.26,0.84 0.37,-0.02 0.69,0.26 0.71,0.63 0.02,0.37 -0.26,0.69 -0.63,0.71z"/>
   </g>
   <path class="fil0" d="M11 20.66c0,0 -0.55,-1.65 0.96,-2.26 1.51,-0.61 7.28,-0.27 7.08,1.92 0,0 -0.63,0.43 -1.55,-0.29 -0.22,-0.17 -0.63,-0.28 -1.15,-0.33 -1.63,-0.15 -4.32,0.26 -5.34,0.96z"/>
   <path class="fil0" d="M13.77 9.77c0.91,0.65 0.86,2.19 0.66,3.16 -0,0.01 -0,0.02 -0.01,0.03 -0.19,0.77 -0.65,1.39 -1.31,1.82 -0.18,0.12 -0.37,0.22 -0.57,0.3 -0.6,0.26 -1.27,0.38 -1.93,0.4 -0.41,0.02 -0.92,0.01 -1.32,-0.1 -0.58,-0.15 -1.2,-0.48 -1.67,-0.84 -0.79,-0.6 -1.34,-1.41 -1.45,-2.4 -0.11,-0.92 0.18,-1.79 1.02,-2.25 0.33,-0.18 0.78,-0.3 1.15,-0.29l4.98 0c0.17,0 0.33,0.05 0.47,0.15zm-4.42 0.8l0 1.07c0,0.21 -0.18,0.39 -0.39,0.39l-0.33 0c-0.21,0 -0.39,-0.18 -0.39,-0.39l0 -1.07c-0.2,0.01 -0.44,0.08 -0.61,0.17 -0.49,0.27 -0.59,0.78 -0.53,1.3 0.09,0.73 0.5,1.31 1.08,1.75 0.37,0.28 0.89,0.55 1.34,0.67 0.29,0.08 0.75,0.08 1.04,0.07 0.53,-0.02 1.1,-0.12 1.59,-0.33 0.67,-0.28 1.15,-0.76 1.33,-1.47 0.11,-0.53 0.23,-1.76 -0.24,-2.17l-3.9 0z"/>
   <path class="fil0" d="M22.26 9.77c0.91,0.65 0.86,2.19 0.66,3.16 -0,0.01 -0,0.02 -0.01,0.03 -0.19,0.77 -0.65,1.39 -1.31,1.82 -0.18,0.12 -0.37,0.22 -0.57,0.3 -0.6,0.26 -1.27,0.38 -1.93,0.4 -0.41,0.02 -0.92,0.01 -1.32,-0.1 -0.58,-0.15 -1.2,-0.48 -1.67,-0.84 -0.79,-0.6 -1.34,-1.41 -1.45,-2.4 -0.11,-0.92 0.18,-1.79 1.02,-2.25 0.33,-0.18 0.78,-0.3 1.15,-0.29l4.98 0c0.17,0 0.33,0.05 0.47,0.15zm-4.42 0.8l0 1.07c0,0.21 -0.18,0.39 -0.39,0.39l-0.33 0c-0.21,0 -0.39,-0.18 -0.39,-0.39l0 -1.07c-0.2,0.01 -0.44,0.08 -0.61,0.17 -0.49,0.27 -0.59,0.78 -0.53,1.3 0.09,0.73 0.5,1.31 1.08,1.75 0.37,0.28 0.89,0.55 1.34,0.67 0.29,0.08 0.75,0.08 1.04,0.07 0.53,-0.02 1.1,-0.12 1.59,-0.33 0.67,-0.28 1.15,-0.76 1.33,-1.47 0.11,-0.53 0.23,-1.76 -0.24,-2.17l-3.9 0z"/>
  </g>
 </g>
</svg>
