<?xml version="1.0" encoding="UTF-8"?>
<!DOCTYPE svg PUBLIC "-//W3C//DTD SVG 1.1//EN" "http://www.w3.org/Graphics/SVG/1.1/DTD/svg11.dtd">
<!-- Creator: CorelDRAW 2019 (64-Bit) -->
<svg xmlns="http://www.w3.org/2000/svg" xml:space="preserve" width="1.52866in" height="1.61207in" version="1.1" style="shape-rendering:geometricPrecision; text-rendering:geometricPrecision; image-rendering:optimizeQuality; fill-rule:evenodd; clip-rule:evenodd"
viewBox="0 0 29.94 31.58"
 xmlns:xlink="http://www.w3.org/1999/xlink"
 xmlns:xodm="http://www.corel.com/coreldraw/odm/2003">
 <defs>
  <style type="text/css">
   <![CDATA[
    .fil0 {fill:black}
    .fil1 {fill:#92499C}
    .fil2 {fill:#9F6AA7}
    .fil3 {fill:#FEFEFE}
   ]]>
  </style>
 </defs>
 <g id="Layer_x0020_1">
  <metadata id="CorelCorpID_0Corel-Layer"/>
  <g id="_2689532810240">
   <path class="fil0" d="M12.11 1.11c0.32,-0.49 0.78,-0.98 1.4,-1.03 0.69,-0.05 1.16,0.44 1.5,1.05 0.31,-0.52 0.76,-1.05 1.39,-1.11 0.7,-0.07 1.2,0.43 1.55,1.04 0.33,-0.47 0.8,-0.93 1.4,-0.98 0.68,-0.06 1.17,0.4 1.51,0.98 0.32,-0.45 0.77,-0.9 1.36,-0.95 0.69,-0.06 1.17,0.41 1.51,1 0.03,-0.04 0.07,-0.09 0.1,-0.13 0.36,-0.45 0.85,-0.88 1.46,-0.93 1.4,-0.11 2.02,1.78 2.3,2.83 1.18,4.35 2.08,8.92 2.31,13.42 0.11,2.02 0.08,4.06 -0.17,6.07 -0.31,2.52 -1.13,5.03 -3.22,6.62 -1.4,1.07 -2.83,1.37 -4.47,1.85 -0.62,0.18 -1.3,0.3 -1.94,0.39 -0.9,0.13 -1.82,0.22 -2.73,0.28 -2.24,0.14 -4.55,0.09 -6.78,-0.21 -1.92,-0.26 -3.88,-0.71 -5.65,-1.51 -0.76,-0.35 -1.45,-0.82 -2.03,-1.41 -4.23,-4.26 -2.85,-13.76 -1.87,-19.12 0.2,-1.1 0.42,-2.19 0.67,-3.28 0.37,-1.63 0.87,-4.77 2.39,-5.68 0.22,-0.13 0.47,-0.23 0.73,-0.25 0.72,-0.06 1.21,0.39 1.53,0.98 0.3,-0.46 0.72,-0.9 1.29,-0.97 0.55,-0.06 0.99,0.25 1.31,0.67 0.1,0.13 0.19,0.27 0.27,0.41 0.3,-0.52 0.75,-1.05 1.37,-1.11 0.7,-0.07 1.19,0.46 1.53,1.1zm-0.58 1.76c-0.13,-0.45 -0.32,-1.01 -0.57,-1.41 -0.04,-0.06 -0.19,-0.27 -0.27,-0.29 -0.16,0.02 -0.46,0.51 -0.53,0.64 -0.19,0.34 -0.37,0.77 -0.48,1.14 -0.07,0.22 -0.27,0.37 -0.5,0.37 -0.23,0 -0.43,-0.15 -0.5,-0.37 -0.15,-0.47 -0.37,-1.14 -0.68,-1.54 -0.03,-0.04 -0.18,-0.22 -0.25,-0.21 -0.17,0.02 -0.45,0.46 -0.53,0.59 -0.19,0.33 -0.37,0.74 -0.49,1.1 -0.07,0.23 -0.28,0.37 -0.52,0.36 -0.24,-0.01 -0.43,-0.18 -0.48,-0.41 -0.05,-0.26 -0.39,-1.69 -0.83,-1.65 -0.08,0.01 -0.16,0.05 -0.22,0.08 -1.04,0.62 -1.59,3.8 -1.85,4.94 -0.25,1.07 -0.46,2.15 -0.66,3.23 -0.51,2.78 -0.92,5.61 -0.99,8.44 -0.09,3.69 0.35,9.06 4.22,10.82 1.66,0.75 3.52,1.18 5.32,1.42 2.15,0.29 4.39,0.34 6.55,0.2 0.88,-0.05 1.76,-0.14 2.63,-0.27 0.59,-0.09 1.21,-0.19 1.78,-0.36 1.46,-0.43 2.83,-0.7 4.08,-1.65 1.82,-1.38 2.5,-3.65 2.77,-5.83 0.24,-1.94 0.26,-3.92 0.16,-5.87 -0.23,-4.42 -1.12,-8.91 -2.27,-13.17 -0.14,-0.53 -0.37,-1.26 -0.71,-1.7 -0.08,-0.1 -0.23,-0.27 -0.37,-0.26 -0.46,0.04 -1.09,1.15 -1.27,1.55 -0.09,0.2 -0.29,0.32 -0.51,0.31 -0.22,-0.01 -0.4,-0.15 -0.47,-0.37 -0.12,-0.39 -0.32,-0.95 -0.58,-1.27 -0.04,-0.04 -0.15,-0.18 -0.22,-0.17 -0.17,0.01 -0.43,0.36 -0.52,0.48 -0.2,0.29 -0.4,0.66 -0.52,0.99 -0.08,0.21 -0.28,0.34 -0.5,0.33 -0.23,-0.01 -0.41,-0.15 -0.48,-0.37 -0.13,-0.4 -0.32,-0.96 -0.6,-1.29 -0.04,-0.05 -0.16,-0.18 -0.24,-0.18 -0.18,0.02 -0.45,0.36 -0.54,0.49 -0.21,0.29 -0.41,0.67 -0.54,1.01 -0.08,0.21 -0.28,0.34 -0.5,0.33 -0.22,-0.01 -0.41,-0.15 -0.48,-0.36 -0.14,-0.42 -0.35,-1.01 -0.63,-1.36 -0.03,-0.04 -0.16,-0.19 -0.22,-0.18 -0.18,0.02 -0.49,0.51 -0.57,0.65 -0.2,0.35 -0.38,0.78 -0.5,1.17 -0.07,0.22 -0.27,0.37 -0.51,0.37 -0.24,-0 -0.43,-0.16 -0.49,-0.38 -0.13,-0.47 -0.33,-1.13 -0.62,-1.53 -0.03,-0.04 -0.17,-0.22 -0.23,-0.21 -0.17,0.01 -0.47,0.44 -0.55,0.57 -0.2,0.32 -0.4,0.72 -0.52,1.08 -0.08,0.22 -0.28,0.35 -0.51,0.35 -0.23,-0.01 -0.42,-0.15 -0.49,-0.37z"/>
   <path class="fil1" d="M11.54 2.87c-0.13,-0.45 -0.32,-1.01 -0.57,-1.41 -0.04,-0.06 -0.19,-0.27 -0.27,-0.29 -0.16,0.02 -0.46,0.51 -0.53,0.64 -0.19,0.34 -0.37,0.77 -0.48,1.14 -0.07,0.22 -0.27,0.37 -0.5,0.37 -0.23,0 -0.43,-0.15 -0.5,-0.37 -0.15,-0.47 -0.37,-1.14 -0.68,-1.54 -0.03,-0.04 -0.18,-0.22 -0.25,-0.21 -0.17,0.02 -0.45,0.46 -0.53,0.59 -0.19,0.33 -0.37,0.74 -0.49,1.1 -0.07,0.23 -0.28,0.37 -0.52,0.36 -0.24,-0.01 -0.43,-0.18 -0.48,-0.41 -0.05,-0.26 -0.39,-1.69 -0.83,-1.65 -0.08,0.01 -0.16,0.05 -0.22,0.08 -1.04,0.62 -1.59,3.8 -1.85,4.94 -0.25,1.07 -0.46,2.15 -0.66,3.23 -0.51,2.78 -0.92,5.61 -0.99,8.44 -0.09,3.69 0.35,9.06 4.22,10.82 1.66,0.75 3.52,1.18 5.32,1.42 2.15,0.29 4.39,0.34 6.55,0.2 0.88,-0.05 1.76,-0.14 2.63,-0.27 0.59,-0.09 1.21,-0.19 1.78,-0.36 1.46,-0.43 2.83,-0.7 4.08,-1.65 1.82,-1.38 2.5,-3.65 2.77,-5.83 0.24,-1.94 0.26,-3.92 0.16,-5.87 -0.23,-4.42 -1.12,-8.91 -2.27,-13.17 -0.14,-0.53 -0.37,-1.26 -0.71,-1.7 -0.08,-0.1 -0.23,-0.27 -0.37,-0.26 -0.46,0.04 -1.09,1.15 -1.27,1.55 -0.09,0.2 -0.29,0.32 -0.51,0.31 -0.22,-0.01 -0.4,-0.15 -0.47,-0.37 -0.12,-0.39 -0.32,-0.95 -0.58,-1.27 -0.04,-0.04 -0.15,-0.18 -0.22,-0.17 -0.17,0.01 -0.43,0.36 -0.52,0.48 -0.2,0.29 -0.4,0.66 -0.52,0.99 -0.08,0.21 -0.28,0.34 -0.5,0.33 -0.23,-0.01 -0.41,-0.15 -0.48,-0.37 -0.13,-0.4 -0.32,-0.96 -0.6,-1.29 -0.04,-0.05 -0.16,-0.18 -0.24,-0.18 -0.18,0.02 -0.45,0.36 -0.54,0.49 -0.21,0.29 -0.41,0.67 -0.54,1.01 -0.08,0.21 -0.28,0.34 -0.5,0.33 -0.22,-0.01 -0.41,-0.15 -0.48,-0.36 -0.14,-0.42 -0.35,-1.01 -0.63,-1.36 -0.03,-0.04 -0.16,-0.19 -0.22,-0.18 -0.18,0.02 -0.49,0.51 -0.57,0.65 -0.2,0.35 -0.38,0.78 -0.5,1.17 -0.07,0.22 -0.27,0.37 -0.51,0.37 -0.24,-0 -0.43,-0.16 -0.49,-0.38 -0.13,-0.47 -0.33,-1.13 -0.62,-1.53 -0.03,-0.04 -0.17,-0.22 -0.23,-0.21 -0.17,0.01 -0.47,0.44 -0.55,0.57 -0.2,0.32 -0.4,0.72 -0.52,1.08 -0.08,0.22 -0.28,0.35 -0.51,0.35 -0.23,-0.01 -0.42,-0.15 -0.49,-0.37z"/>
   <path class="fil2" d="M3.5 27.3c0.52,0.58 1.15,1.07 1.91,1.41 1.66,0.75 3.52,1.18 5.32,1.42 2.15,0.29 4.39,0.34 6.55,0.2 0.88,-0.05 1.76,-0.14 2.63,-0.27 0.59,-0.09 1.21,-0.19 1.78,-0.36 1.46,-0.43 2.83,-0.7 4.08,-1.65 1.82,-1.38 2.5,-3.65 2.77,-5.83 0.05,-0.39 0.09,-0.79 0.12,-1.19l0.01 -0.07c0.12,-1.54 0.12,-3.09 0.04,-4.62 -0.02,-0.35 -0.04,-0.7 -0.07,-1.05l-0.01 -0.19c-0.32,-4.01 -1.14,-8.06 -2.19,-11.93 -0.14,-0.53 -0.37,-1.26 -0.71,-1.7 -0.08,-0.1 -0.23,-0.27 -0.37,-0.26l-0 0c1.01,3.96 1.76,8.08 1.97,12.14 0.11,2.02 0.08,4.06 -0.17,6.07 -0.31,2.52 -1.13,5.03 -3.22,6.62 -1.4,1.07 -2.83,1.37 -4.47,1.85 -0.62,0.18 -1.3,0.3 -1.94,0.39 -0.9,0.13 -1.82,0.22 -2.73,0.28 -2.24,0.14 -4.55,0.09 -6.78,-0.21 -1.52,-0.2 -3.07,-0.53 -4.52,-1.06z"/>
   <path class="fil0" d="M7.3 18.83c-0.6,-0.48 -1.26,-1.06 -1.27,-1.25 -0.02,-0.52 1.33,0.24 2.25,0.84 0.91,0.59 0.89,0.42 1.04,1.52 0.1,0.69 0.2,1.85 0.21,3.75 0,0 -0.43,0.82 -0.83,-1.08 -0.14,-0.67 -0.24,-1.26 -0.32,-1.72 -0.26,-1.68 0.17,-1.03 -1.1,-2.04z"/>
   <path class="fil0" d="M22.64 18.83c0.6,-0.48 1.26,-1.06 1.27,-1.25 0.02,-0.52 -1.33,0.24 -2.25,0.84 -0.91,0.59 -0.89,0.42 -1.04,1.52 -0.1,0.69 -0.2,1.85 -0.21,3.75 0,0 0.43,0.82 0.83,-1.08 0.14,-0.67 0.24,-1.26 0.32,-1.72 0.26,-1.68 -0.17,-1.03 1.1,-2.04z"/>
   <path class="fil0" d="M15.9 10.81l2.94 -3.2c0.2,-0.22 0.55,-0.23 0.77,-0.03 0.22,0.2 0.23,0.55 0.03,0.77l-2.94 3.2c-0.2,0.22 -0.55,0.23 -0.77,0.03 -0.22,-0.2 -0.23,-0.55 -0.03,-0.77z"/>
   <path class="fil0" d="M13.13 11.54l-2.94 -3.2c-0.2,-0.22 -0.19,-0.56 0.03,-0.77 0.22,-0.2 0.56,-0.19 0.77,0.03l2.94 3.2c0.2,0.22 0.19,0.56 -0.03,0.77 -0.22,0.2 -0.56,0.19 -0.77,-0.03z"/>
   <path class="fil0" d="M12.8 15.36c-0.55,0.03 -1.09,0.06 -1.64,0.07 -0.98,0.02 -2.27,0.03 -3.22,-0.21 -1.04,-0.27 -1.5,-1.38 -1.5,-2.37 0,-0.19 0.02,-0.38 0.07,-0.57 0.41,-1.74 2.4,-2.54 4.03,-2.54 1.62,0 3.61,0.81 4.03,2.54 0.04,0.19 0.07,0.38 0.07,0.57 0,1.09 -0.58,2.43 -1.82,2.51z"/>
   <path class="fil3" d="M12.75 14.56c0.75,-0.05 1.07,-1.03 1.07,-1.71 0,-1.28 -1.47,-2.31 -3.29,-2.31 -1.82,0 -3.29,1.04 -3.29,2.31 0,0.62 0.25,1.42 0.9,1.59 1.05,0.27 3.06,0.21 4.6,0.12z"/>
   <path class="fil0" d="M21.68 15.36c-0.55,0.03 -1.09,0.06 -1.64,0.07 -0.98,0.02 -2.27,0.03 -3.22,-0.21 -1.04,-0.27 -1.5,-1.38 -1.5,-2.37 0,-0.19 0.02,-0.38 0.07,-0.57 0.41,-1.74 2.4,-2.54 4.03,-2.54 1.62,0 3.61,0.81 4.03,2.54 0.04,0.19 0.07,0.38 0.07,0.57 0,1.09 -0.58,2.43 -1.82,2.51z"/>
   <path class="fil3" d="M21.63 14.56c0.75,-0.05 1.07,-1.03 1.07,-1.71 0,-1.28 -1.47,-2.31 -3.29,-2.31 -1.82,0 -3.29,1.04 -3.29,2.31 0,0.62 0.25,1.42 0.9,1.59 1.05,0.27 3.06,0.21 4.6,0.12z"/>
   <rect class="fil0" x="18.35" y="10.23" width="1.31" height="4.75"/>
   <rect class="fil0" x="10.03" y="10.23" width="1.31" height="4.75"/>
   <path class="fil0" d="M11.53 18.61c0.66,-0.28 1.48,-0.48 2.19,-0.6 1.43,-0.23 2.97,-0.15 4.25,0.58 0.26,0.15 0.35,0.48 0.2,0.74 -0.15,0.26 -0.48,0.35 -0.74,0.2 -1.05,-0.61 -2.37,-0.64 -3.54,-0.45 -0.61,0.1 -1.36,0.28 -1.93,0.52 -0.27,0.12 -0.59,-0.01 -0.71,-0.29 -0.12,-0.27 0.01,-0.59 0.29,-0.71z"/>
   <polygon class="fil0" points="16.53,18.84 16.89,21.1 18.17,19.34 "/>
   <polygon class="fil3" points="17.04,19.43 17.14,20.06 17.5,19.57 "/>
   <polygon class="fil0" points="12.89,18.84 12.52,21.1 11.24,19.34 "/>
   <polygon class="fil3" points="12.37,19.43 11.91,19.57 12.27,20.06 "/>
  </g>
 </g>
</svg>
