<?xml version="1.0" encoding="UTF-8"?>
<!DOCTYPE svg PUBLIC "-//W3C//DTD SVG 1.1//EN" "http://www.w3.org/Graphics/SVG/1.1/DTD/svg11.dtd">
<!-- Creator: CorelDRAW 2019 (64-Bit) -->
<svg xmlns="http://www.w3.org/2000/svg" xml:space="preserve" width="1.52866in" height="1.61207in" version="1.1" style="shape-rendering:geometricPrecision; text-rendering:geometricPrecision; image-rendering:optimizeQuality; fill-rule:evenodd; clip-rule:evenodd"
viewBox="0 0 31.59 33.31"
 xmlns:xlink="http://www.w3.org/1999/xlink"
 xmlns:xodm="http://www.corel.com/coreldraw/odm/2003">
 <defs>
  <style type="text/css">
   <![CDATA[
    .fil0 {fill:black}
    .fil2 {fill:#EEEEEE}
    .fil3 {fill:#F6A391}
    .fil1 {fill:#FEFEFE}
   ]]>
  </style>
 </defs>
 <g id="Layer_x0020_1">
  <metadata id="CorelCorpID_0Corel-Layer"/>
  <g id="_2689144309824">
   <path class="fil0" d="M12.78 1.17c0.34,-0.52 0.82,-1.04 1.47,-1.09 0.72,-0.06 1.23,0.46 1.58,1.11 0.33,-0.55 0.8,-1.1 1.47,-1.18 0.74,-0.08 1.26,0.46 1.63,1.1 0.35,-0.49 0.84,-0.98 1.47,-1.04 0.72,-0.06 1.23,0.42 1.59,1.03 0.34,-0.48 0.81,-0.94 1.43,-1 0.73,-0.07 1.24,0.44 1.59,1.05 0.03,-0.05 0.07,-0.09 0.1,-0.13 0.38,-0.48 0.9,-0.93 1.54,-0.98 1.48,-0.11 2.13,1.88 2.43,2.99 1.24,4.59 2.19,9.41 2.44,14.16 0.11,2.13 0.08,4.29 -0.18,6.4 -0.33,2.65 -1.19,5.3 -3.4,6.98 -1.48,1.13 -2.98,1.45 -4.71,1.95 -0.66,0.19 -1.37,0.31 -2.04,0.41 -0.95,0.14 -1.92,0.23 -2.88,0.29 -2.37,0.15 -4.8,0.09 -7.15,-0.22 -2.02,-0.27 -4.1,-0.75 -5.96,-1.59 -0.8,-0.36 -1.52,-0.86 -2.15,-1.49 -4.46,-4.49 -3,-14.52 -1.97,-20.17 0.21,-1.16 0.44,-2.31 0.71,-3.46 0.39,-1.72 0.92,-5.04 2.52,-6 0.23,-0.14 0.49,-0.24 0.77,-0.26 0.76,-0.07 1.27,0.41 1.62,1.03 0.32,-0.49 0.76,-0.95 1.36,-1.02 0.58,-0.07 1.05,0.26 1.38,0.7 0.1,0.13 0.2,0.28 0.28,0.43 0.32,-0.54 0.79,-1.11 1.45,-1.18 0.74,-0.07 1.26,0.49 1.62,1.16zm-0.61 1.86c-0.14,-0.48 -0.34,-1.06 -0.61,-1.48 -0.04,-0.06 -0.2,-0.29 -0.28,-0.31 -0.17,0.02 -0.49,0.54 -0.56,0.67 -0.2,0.36 -0.39,0.81 -0.51,1.2 -0.07,0.24 -0.28,0.39 -0.53,0.39 -0.25,0 -0.45,-0.15 -0.53,-0.39 -0.15,-0.5 -0.39,-1.2 -0.71,-1.62 -0.03,-0.04 -0.19,-0.23 -0.26,-0.22 -0.18,0.02 -0.48,0.48 -0.56,0.62 -0.2,0.35 -0.39,0.78 -0.51,1.16 -0.08,0.24 -0.3,0.39 -0.55,0.38 -0.25,-0.01 -0.46,-0.19 -0.51,-0.44 -0.06,-0.27 -0.41,-1.78 -0.87,-1.74 -0.08,0.01 -0.17,0.05 -0.23,0.09 -1.1,0.66 -1.67,4.01 -1.95,5.21 -0.26,1.13 -0.49,2.27 -0.7,3.41 -0.53,2.93 -0.97,5.91 -1.04,8.9 -0.1,3.89 0.37,9.56 4.46,11.41 1.75,0.79 3.71,1.24 5.61,1.5 2.27,0.3 4.63,0.35 6.91,0.21 0.93,-0.06 1.86,-0.15 2.78,-0.28 0.62,-0.09 1.28,-0.2 1.88,-0.38 1.54,-0.45 2.99,-0.74 4.31,-1.74 1.92,-1.46 2.64,-3.85 2.92,-6.15 0.25,-2.05 0.28,-4.13 0.17,-6.19 -0.24,-4.66 -1.18,-9.4 -2.4,-13.9 -0.15,-0.56 -0.39,-1.33 -0.75,-1.8 -0.08,-0.11 -0.24,-0.29 -0.39,-0.28 -0.48,0.04 -1.15,1.22 -1.34,1.64 -0.09,0.21 -0.3,0.34 -0.54,0.33 -0.23,-0.01 -0.43,-0.16 -0.49,-0.39 -0.13,-0.42 -0.34,-1 -0.62,-1.34 -0.04,-0.05 -0.16,-0.18 -0.24,-0.18 -0.18,0.02 -0.46,0.38 -0.55,0.51 -0.21,0.3 -0.42,0.7 -0.55,1.05 -0.09,0.22 -0.29,0.36 -0.53,0.35 -0.24,-0.01 -0.44,-0.16 -0.51,-0.39 -0.13,-0.42 -0.34,-1.02 -0.63,-1.36 -0.05,-0.05 -0.17,-0.19 -0.25,-0.19 -0.19,0.02 -0.47,0.38 -0.57,0.52 -0.22,0.31 -0.43,0.71 -0.57,1.07 -0.09,0.22 -0.29,0.36 -0.53,0.35 -0.24,-0.01 -0.43,-0.15 -0.51,-0.38 -0.15,-0.44 -0.37,-1.06 -0.67,-1.43 -0.03,-0.04 -0.17,-0.2 -0.23,-0.19 -0.19,0.02 -0.51,0.54 -0.6,0.69 -0.21,0.37 -0.4,0.83 -0.53,1.23 -0.07,0.24 -0.29,0.39 -0.54,0.39 -0.25,-0 -0.46,-0.17 -0.52,-0.41 -0.14,-0.5 -0.35,-1.19 -0.65,-1.61 -0.03,-0.04 -0.18,-0.23 -0.24,-0.22 -0.18,0.01 -0.49,0.47 -0.58,0.6 -0.21,0.34 -0.42,0.76 -0.55,1.14 -0.08,0.23 -0.29,0.37 -0.53,0.37 -0.24,-0.01 -0.44,-0.16 -0.51,-0.39z"/>
   <path class="fil1" d="M12.17 3.03c-0.14,-0.48 -0.34,-1.06 -0.61,-1.48 -0.04,-0.06 -0.2,-0.29 -0.28,-0.31 -0.17,0.02 -0.49,0.54 -0.56,0.67 -0.2,0.36 -0.39,0.81 -0.51,1.2 -0.07,0.24 -0.28,0.39 -0.53,0.39 -0.25,0 -0.45,-0.15 -0.53,-0.39 -0.15,-0.5 -0.39,-1.2 -0.71,-1.62 -0.03,-0.04 -0.19,-0.23 -0.26,-0.22 -0.18,0.02 -0.48,0.48 -0.56,0.62 -0.2,0.35 -0.39,0.78 -0.51,1.16 -0.08,0.24 -0.3,0.39 -0.55,0.38 -0.25,-0.01 -0.46,-0.19 -0.51,-0.44 -0.06,-0.27 -0.41,-1.78 -0.87,-1.74 -0.08,0.01 -0.17,0.05 -0.23,0.09 -1.1,0.66 -1.67,4.01 -1.95,5.21 -0.26,1.13 -0.49,2.27 -0.7,3.41 -0.53,2.93 -0.97,5.91 -1.04,8.9 -0.1,3.89 0.37,9.56 4.46,11.41 1.75,0.79 3.71,1.24 5.61,1.5 2.27,0.3 4.63,0.35 6.91,0.21 0.93,-0.06 1.86,-0.15 2.78,-0.28 0.62,-0.09 1.28,-0.2 1.88,-0.38 1.54,-0.45 2.99,-0.74 4.31,-1.74 1.92,-1.46 2.64,-3.85 2.92,-6.15 0.25,-2.05 0.28,-4.13 0.17,-6.19 -0.24,-4.66 -1.18,-9.4 -2.4,-13.9 -0.15,-0.56 -0.39,-1.33 -0.75,-1.8 -0.08,-0.11 -0.24,-0.29 -0.39,-0.28 -0.48,0.04 -1.15,1.22 -1.34,1.64 -0.09,0.21 -0.3,0.34 -0.54,0.33 -0.23,-0.01 -0.43,-0.16 -0.49,-0.39 -0.13,-0.42 -0.34,-1 -0.62,-1.34 -0.04,-0.05 -0.16,-0.18 -0.24,-0.18 -0.18,0.02 -0.46,0.38 -0.55,0.51 -0.21,0.3 -0.42,0.7 -0.55,1.05 -0.09,0.22 -0.29,0.36 -0.53,0.35 -0.24,-0.01 -0.44,-0.16 -0.51,-0.39 -0.13,-0.42 -0.34,-1.02 -0.63,-1.36 -0.05,-0.05 -0.17,-0.19 -0.25,-0.19 -0.19,0.02 -0.47,0.38 -0.57,0.52 -0.22,0.31 -0.43,0.71 -0.57,1.07 -0.09,0.22 -0.29,0.36 -0.53,0.35 -0.24,-0.01 -0.43,-0.15 -0.51,-0.38 -0.15,-0.44 -0.37,-1.06 -0.67,-1.43 -0.03,-0.04 -0.17,-0.2 -0.23,-0.19 -0.19,0.02 -0.51,0.54 -0.6,0.69 -0.21,0.37 -0.4,0.83 -0.53,1.23 -0.07,0.24 -0.29,0.39 -0.54,0.39 -0.25,-0 -0.46,-0.17 -0.52,-0.41 -0.14,-0.5 -0.35,-1.19 -0.65,-1.61 -0.03,-0.04 -0.18,-0.23 -0.24,-0.22 -0.18,0.01 -0.49,0.47 -0.58,0.6 -0.21,0.34 -0.42,0.76 -0.55,1.14 -0.08,0.23 -0.29,0.37 -0.53,0.37 -0.24,-0.01 -0.44,-0.16 -0.51,-0.39z"/>
   <path class="fil2" d="M3.69 28.8c0.55,0.62 1.21,1.13 2.01,1.49 1.75,0.79 3.71,1.24 5.61,1.5 2.27,0.3 4.63,0.35 6.91,0.21 0.93,-0.06 1.86,-0.15 2.78,-0.28 0.62,-0.09 1.28,-0.2 1.88,-0.38 1.54,-0.45 2.99,-0.74 4.31,-1.74 1.92,-1.46 2.64,-3.85 2.92,-6.15 0.05,-0.42 0.09,-0.83 0.13,-1.25l0.01 -0.07c0.12,-1.62 0.12,-3.26 0.04,-4.88 -0.02,-0.37 -0.04,-0.74 -0.07,-1.1l-0.02 -0.2c-0.33,-4.24 -1.21,-8.5 -2.31,-12.59 -0.15,-0.56 -0.39,-1.33 -0.75,-1.8 -0.08,-0.11 -0.24,-0.29 -0.39,-0.28l-0 0c1.07,4.18 1.86,8.52 2.08,12.81 0.11,2.13 0.08,4.29 -0.18,6.4 -0.33,2.65 -1.19,5.3 -3.4,6.98 -1.48,1.13 -2.98,1.45 -4.71,1.95 -0.66,0.19 -1.37,0.31 -2.04,0.41 -0.95,0.14 -1.92,0.23 -2.88,0.29 -2.37,0.15 -4.8,0.09 -7.15,-0.22 -1.6,-0.21 -3.24,-0.56 -4.77,-1.11z"/>
   <path class="fil0" d="M8.55 6.73c1.34,-0.31 3.69,-0.56 4.94,0.09 0.27,0.14 0.37,0.47 0.23,0.74 -0.14,0.27 -0.47,0.37 -0.74,0.23 -0.96,-0.5 -3.15,-0.23 -4.19,0.01 -0.3,0.07 -0.59,-0.12 -0.66,-0.41 -0.07,-0.3 0.12,-0.59 0.41,-0.66z"/>
   <path class="fil0" d="M17.9 6.73c1.34,-0.31 3.69,-0.56 4.94,0.09 0.27,0.14 0.37,0.47 0.23,0.74 -0.14,0.27 -0.47,0.37 -0.74,0.23 -0.96,-0.5 -3.15,-0.23 -4.19,0.01 -0.3,0.07 -0.59,-0.12 -0.66,-0.41 -0.07,-0.3 0.12,-0.59 0.41,-0.66z"/>
   <path class="fil0" d="M10.47 15.06c0.88,0.73 2.22,1.4 3.3,1.72 2.36,0.71 4.42,0.18 6.05,-1.72 0.2,-0.23 0.55,-0.26 0.78,-0.06 0.23,0.2 0.26,0.55 0.06,0.78 -1.91,2.23 -4.43,2.89 -7.2,2.06 -1.22,-0.36 -2.69,-1.11 -3.68,-1.93 -0.23,-0.19 -0.27,-0.54 -0.07,-0.78 0.19,-0.23 0.54,-0.27 0.78,-0.07z"/>
   <ellipse class="fil3" cx="15.15" cy="13.62" rx="5.36" ry="1.75"/>
   <path class="fil0" d="M5.46 10.7c0.28,-0.51 0.85,-1.01 1.35,-1.31 1.31,-0.8 2.91,-0.91 4.4,-0.71 0.91,0.12 1.99,0.5 2.74,1.04 0.27,0.19 0.52,0.44 0.73,0.69 0.39,0.47 0.72,1.08 0.54,1.7 -0.15,0.53 -0.59,0.84 -1.1,0.97 -0.55,0.14 -1.16,0.06 -1.7,-0.07 -0.44,-0.11 -0.87,-0.24 -1.3,-0.36 -0.22,-0.07 -0.46,-0.14 -0.69,-0.16 -0.26,-0.03 -0.52,0.03 -0.77,0.09 -0.45,0.12 -0.88,0.28 -1.33,0.41 -0.82,0.24 -1.98,0.52 -2.68,-0.14 -0.57,-0.54 -0.48,-1.34 -0.25,-2.01 0.02,-0.04 0.03,-0.08 0.05,-0.12zm2.58 -0.84l0 2.19c0.46,-0.14 0.92,-0.3 1.38,-0.42 0.37,-0.1 0.73,-0.16 1.11,-0.12 0.29,0.03 0.58,0.11 0.86,0.2 0.42,0.12 0.83,0.25 1.26,0.35 0.37,0.09 0.85,0.17 1.23,0.07 0.16,-0.04 0.37,-0.12 0.42,-0.3 0.12,-0.42 -0.61,-1.12 -0.91,-1.35 -0.63,-0.45 -1.53,-0.76 -2.3,-0.86 -1.01,-0.14 -2.08,-0.12 -3.05,0.24zm-1.38 2.41l0 -1.55c-0.13,0.13 -0.27,0.29 -0.34,0.42 -0.18,0.53 -0.26,1.04 0.34,1.12z"/>
   <path class="fil0" d="M16.38 10.7c0.28,-0.51 0.85,-1.01 1.35,-1.31 1.31,-0.8 2.91,-0.91 4.4,-0.71 0.91,0.12 1.99,0.5 2.74,1.04 0.27,0.19 0.52,0.44 0.73,0.69 0.39,0.47 0.72,1.08 0.54,1.7 -0.15,0.53 -0.59,0.84 -1.1,0.97 -0.55,0.14 -1.16,0.06 -1.7,-0.07 -0.44,-0.11 -0.87,-0.24 -1.3,-0.36 -0.22,-0.07 -0.46,-0.14 -0.69,-0.16 -0.26,-0.03 -0.52,0.03 -0.77,0.09 -0.45,0.12 -0.88,0.28 -1.33,0.41 -0.82,0.24 -1.98,0.52 -2.68,-0.14 -0.57,-0.54 -0.48,-1.34 -0.25,-2.01 0.02,-0.04 0.03,-0.08 0.05,-0.12zm2.58 -0.84l0 2.19c0.46,-0.14 0.92,-0.3 1.38,-0.42 0.37,-0.1 0.73,-0.16 1.11,-0.12 0.29,0.03 0.58,0.11 0.86,0.2 0.42,0.12 0.83,0.25 1.26,0.35 0.37,0.09 0.85,0.17 1.23,0.07 0.16,-0.04 0.37,-0.12 0.42,-0.3 0.12,-0.42 -0.61,-1.12 -0.91,-1.35 -0.63,-0.45 -1.53,-0.76 -2.3,-0.86 -1.01,-0.14 -2.08,-0.12 -3.05,0.24zm-1.38 2.41l0 -1.55c-0.13,0.13 -0.27,0.29 -0.34,0.42 -0.18,0.53 -0.26,1.04 0.34,1.12z"/>
  </g>
 </g>
</svg>
