<?xml version="1.0" encoding="UTF-8"?>
<!DOCTYPE svg PUBLIC "-//W3C//DTD SVG 1.1//EN" "http://www.w3.org/Graphics/SVG/1.1/DTD/svg11.dtd">
<!-- Creator: CorelDRAW 2019 (64-Bit) -->
<svg xmlns="http://www.w3.org/2000/svg" xml:space="preserve" width="1.52866in" height="1.61207in" version="1.1" style="shape-rendering:geometricPrecision; text-rendering:geometricPrecision; image-rendering:optimizeQuality; fill-rule:evenodd; clip-rule:evenodd"
viewBox="0 0 33.44 35.27"
 xmlns:xlink="http://www.w3.org/1999/xlink"
 xmlns:xodm="http://www.corel.com/coreldraw/odm/2003">
 <defs>
  <style type="text/css">
   <![CDATA[
    .fil0 {fill:black}
    .fil1 {fill:#CD2E27}
    .fil2 {fill:#EE3F2A}
    .fil3 {fill:#F2BA26}
   ]]>
  </style>
 </defs>
 <g id="Layer_x0020_1">
  <metadata id="CorelCorpID_0Corel-Layer"/>
  <g id="_2689572054336">
   <path class="fil0" d="M13.53 1.24c0.36,-0.55 0.87,-1.1 1.56,-1.15 0.77,-0.06 1.3,0.49 1.67,1.18 0.35,-0.58 0.85,-1.17 1.55,-1.24 0.78,-0.08 1.34,0.48 1.73,1.17 0.37,-0.52 0.89,-1.04 1.56,-1.1 0.76,-0.07 1.3,0.45 1.68,1.09 0.36,-0.51 0.86,-1 1.51,-1.06 0.77,-0.07 1.31,0.46 1.69,1.12 0.04,-0.05 0.07,-0.1 0.11,-0.14 0.41,-0.51 0.95,-0.98 1.63,-1.04 1.56,-0.12 2.25,1.99 2.57,3.16 1.31,4.86 2.32,9.96 2.58,14.99 0.12,2.26 0.09,4.54 -0.19,6.78 -0.34,2.81 -1.26,5.62 -3.6,7.39 -1.57,1.19 -3.16,1.53 -4.99,2.06 -0.7,0.2 -1.45,0.33 -2.16,0.44 -1.01,0.15 -2.03,0.25 -3.05,0.31 -2.51,0.15 -5.08,0.1 -7.57,-0.24 -2.14,-0.29 -4.34,-0.8 -6.31,-1.69 -0.85,-0.39 -1.61,-0.91 -2.27,-1.58 -4.72,-4.76 -3.18,-15.37 -2.09,-21.36 0.22,-1.23 0.47,-2.45 0.75,-3.67 0.42,-1.82 0.97,-5.33 2.67,-6.35 0.25,-0.15 0.52,-0.25 0.81,-0.28 0.81,-0.07 1.35,0.43 1.71,1.09 0.34,-0.52 0.81,-1.01 1.44,-1.08 0.61,-0.07 1.11,0.28 1.46,0.74 0.11,0.14 0.21,0.3 0.3,0.46 0.34,-0.58 0.83,-1.18 1.53,-1.24 0.78,-0.08 1.33,0.52 1.71,1.23zm-0.64 1.97c-0.15,-0.5 -0.36,-1.12 -0.64,-1.57 -0.04,-0.07 -0.21,-0.31 -0.3,-0.32 -0.18,0.02 -0.52,0.57 -0.59,0.71 -0.21,0.38 -0.41,0.86 -0.54,1.28 -0.08,0.25 -0.3,0.41 -0.56,0.41 -0.26,0 -0.48,-0.16 -0.56,-0.41 -0.16,-0.53 -0.42,-1.27 -0.76,-1.71 -0.03,-0.05 -0.2,-0.24 -0.27,-0.24 -0.19,0.02 -0.51,0.51 -0.59,0.66 -0.21,0.37 -0.41,0.82 -0.54,1.23 -0.08,0.26 -0.32,0.42 -0.59,0.4 -0.27,-0.01 -0.49,-0.2 -0.54,-0.46 -0.06,-0.29 -0.44,-1.88 -0.92,-1.84 -0.08,0.01 -0.18,0.05 -0.25,0.09 -1.16,0.7 -1.77,4.25 -2.06,5.52 -0.27,1.2 -0.52,2.4 -0.74,3.61 -0.57,3.11 -1.03,6.26 -1.11,9.42 -0.1,4.12 0.39,10.12 4.72,12.08 1.85,0.84 3.93,1.31 5.94,1.58 2.41,0.32 4.9,0.38 7.32,0.23 0.98,-0.06 1.97,-0.15 2.94,-0.3 0.66,-0.1 1.35,-0.22 1.99,-0.4 1.64,-0.47 3.17,-0.78 4.56,-1.85 2.03,-1.54 2.79,-4.07 3.09,-6.51 0.27,-2.17 0.3,-4.37 0.18,-6.55 -0.26,-4.94 -1.25,-9.95 -2.54,-14.71 -0.16,-0.59 -0.42,-1.41 -0.79,-1.9 -0.08,-0.11 -0.25,-0.31 -0.41,-0.29 -0.51,0.04 -1.22,1.29 -1.42,1.73 -0.1,0.23 -0.32,0.36 -0.57,0.35 -0.25,-0.01 -0.45,-0.17 -0.52,-0.41 -0.14,-0.44 -0.36,-1.06 -0.65,-1.42 -0.04,-0.05 -0.17,-0.2 -0.25,-0.19 -0.19,0.02 -0.48,0.4 -0.58,0.54 -0.22,0.32 -0.44,0.74 -0.59,1.11 -0.09,0.24 -0.31,0.38 -0.56,0.37 -0.25,-0.01 -0.46,-0.17 -0.54,-0.41 -0.14,-0.45 -0.36,-1.08 -0.67,-1.44 -0.05,-0.06 -0.18,-0.2 -0.27,-0.2 -0.2,0.02 -0.5,0.4 -0.61,0.55 -0.23,0.33 -0.46,0.75 -0.61,1.13 -0.09,0.23 -0.31,0.38 -0.56,0.37 -0.25,-0.01 -0.46,-0.16 -0.54,-0.4 -0.15,-0.47 -0.39,-1.13 -0.71,-1.52 -0.03,-0.04 -0.18,-0.21 -0.25,-0.2 -0.2,0.02 -0.54,0.57 -0.63,0.73 -0.22,0.39 -0.43,0.87 -0.56,1.31 -0.08,0.25 -0.3,0.41 -0.57,0.41 -0.26,-0 -0.48,-0.18 -0.55,-0.43 -0.14,-0.52 -0.37,-1.26 -0.69,-1.7 -0.03,-0.04 -0.19,-0.24 -0.26,-0.24 -0.19,0.01 -0.52,0.49 -0.61,0.64 -0.22,0.36 -0.44,0.81 -0.58,1.21 -0.09,0.24 -0.31,0.39 -0.57,0.39 -0.26,-0.01 -0.47,-0.17 -0.54,-0.42z"/>
   <path class="fil1" d="M12.89 3.21c-0.15,-0.5 -0.36,-1.12 -0.64,-1.57 -0.04,-0.07 -0.21,-0.31 -0.3,-0.32 -0.18,0.02 -0.52,0.57 -0.59,0.71 -0.21,0.38 -0.41,0.86 -0.54,1.28 -0.08,0.25 -0.3,0.41 -0.56,0.41 -0.26,0 -0.48,-0.16 -0.56,-0.41 -0.16,-0.53 -0.42,-1.27 -0.76,-1.71 -0.03,-0.05 -0.2,-0.24 -0.27,-0.24 -0.19,0.02 -0.51,0.51 -0.59,0.66 -0.21,0.37 -0.41,0.82 -0.54,1.23 -0.08,0.26 -0.32,0.42 -0.59,0.4 -0.27,-0.01 -0.49,-0.2 -0.54,-0.46 -0.06,-0.29 -0.44,-1.88 -0.92,-1.84 -0.08,0.01 -0.18,0.05 -0.25,0.09 -1.16,0.7 -1.77,4.25 -2.06,5.52 -0.27,1.2 -0.52,2.4 -0.74,3.61 -0.57,3.11 -1.03,6.26 -1.11,9.42 -0.1,4.12 0.39,10.12 4.72,12.08 1.85,0.84 3.93,1.31 5.94,1.58 2.41,0.32 4.9,0.38 7.32,0.23 0.98,-0.06 1.97,-0.15 2.94,-0.3 0.66,-0.1 1.35,-0.22 1.99,-0.4 1.64,-0.47 3.17,-0.78 4.56,-1.85 2.03,-1.54 2.79,-4.07 3.09,-6.51 0.27,-2.17 0.3,-4.37 0.18,-6.55 -0.26,-4.94 -1.25,-9.95 -2.54,-14.71 -0.16,-0.59 -0.42,-1.41 -0.79,-1.9 -0.08,-0.11 -0.25,-0.31 -0.41,-0.29 -0.51,0.04 -1.22,1.29 -1.42,1.73 -0.1,0.23 -0.32,0.36 -0.57,0.35 -0.25,-0.01 -0.45,-0.17 -0.52,-0.41 -0.14,-0.44 -0.36,-1.06 -0.65,-1.42 -0.04,-0.05 -0.17,-0.2 -0.25,-0.19 -0.19,0.02 -0.48,0.4 -0.58,0.54 -0.22,0.32 -0.44,0.74 -0.59,1.11 -0.09,0.24 -0.31,0.38 -0.56,0.37 -0.25,-0.01 -0.46,-0.17 -0.54,-0.41 -0.14,-0.45 -0.36,-1.08 -0.67,-1.44 -0.05,-0.06 -0.18,-0.2 -0.27,-0.2 -0.2,0.02 -0.5,0.4 -0.61,0.55 -0.23,0.33 -0.46,0.75 -0.61,1.13 -0.09,0.23 -0.31,0.38 -0.56,0.37 -0.25,-0.01 -0.46,-0.16 -0.54,-0.4 -0.15,-0.47 -0.39,-1.13 -0.71,-1.52 -0.03,-0.04 -0.18,-0.21 -0.25,-0.2 -0.2,0.02 -0.54,0.57 -0.63,0.73 -0.22,0.39 -0.43,0.87 -0.56,1.31 -0.08,0.25 -0.3,0.41 -0.57,0.41 -0.26,-0 -0.48,-0.18 -0.55,-0.43 -0.14,-0.52 -0.37,-1.26 -0.69,-1.7 -0.03,-0.04 -0.19,-0.24 -0.26,-0.24 -0.19,0.01 -0.52,0.49 -0.61,0.64 -0.22,0.36 -0.44,0.81 -0.58,1.21 -0.09,0.24 -0.31,0.39 -0.57,0.39 -0.26,-0.01 -0.47,-0.17 -0.54,-0.42z"/>
   <path class="fil2" d="M3.91 30.49c0.58,0.65 1.28,1.19 2.13,1.58 1.85,0.84 3.93,1.31 5.94,1.58 2.41,0.32 4.9,0.38 7.32,0.23 0.98,-0.06 1.97,-0.15 2.94,-0.3 0.66,-0.1 1.35,-0.22 1.99,-0.4 1.64,-0.47 3.17,-0.78 4.56,-1.85 2.03,-1.54 2.79,-4.07 3.09,-6.51 0.05,-0.44 0.1,-0.88 0.13,-1.32l0.01 -0.08c0.13,-1.72 0.13,-3.45 0.04,-5.16 -0.02,-0.39 -0.04,-0.78 -0.07,-1.17l-0.02 -0.21c-0.35,-4.48 -1.28,-9 -2.45,-13.32 -0.16,-0.59 -0.42,-1.41 -0.79,-1.9 -0.08,-0.11 -0.25,-0.31 -0.41,-0.29l-0 0c1.13,4.42 1.97,9.02 2.21,13.56 0.12,2.26 0.09,4.54 -0.19,6.78 -0.34,2.81 -1.26,5.62 -3.6,7.39 -1.57,1.19 -3.16,1.53 -4.99,2.06 -0.7,0.2 -1.45,0.33 -2.16,0.44 -1.01,0.15 -2.03,0.25 -3.05,0.31 -2.51,0.15 -5.08,0.1 -7.57,-0.24 -1.7,-0.23 -3.43,-0.59 -5.05,-1.18z"/>
   <path class="fil0" d="M16.52 8.36l0 3.44c0,0.36 -0.29,0.66 -0.66,0.66 -0.36,0 -0.66,-0.29 -0.66,-0.66l0 -3.44c0,-0.36 0.29,-0.66 0.66,-0.66 0.36,0 0.66,0.29 0.66,0.66z"/>
   <path class="fil0" d="M12.63 8.63l2.24 2.62c0.23,0.27 0.2,0.69 -0.07,0.93 -0.27,0.23 -0.69,0.2 -0.93,-0.07l-2.24 -2.62c-0.23,-0.27 -0.2,-0.69 0.07,-0.93 0.27,-0.23 0.69,-0.2 0.93,0.07z"/>
   <path class="fil0" d="M13.07 24.13c0.74,-0.32 1.67,-0.56 2.46,-0.68 1.66,-0.26 3.41,-0.14 4.88,0.72 0.31,0.18 0.42,0.59 0.24,0.9 -0.18,0.31 -0.59,0.42 -0.9,0.24 -1.21,-0.7 -2.67,-0.77 -4.02,-0.56 -0.67,0.11 -1.51,0.31 -2.14,0.59 -0.33,0.14 -0.72,-0.01 -0.86,-0.34 -0.14,-0.33 0.01,-0.72 0.34,-0.86z"/>
   <path class="fil0" d="M6.18 22.19l1.48 2.67c0.16,0.28 0.05,0.64 -0.23,0.79 -0.28,0.16 -0.64,0.05 -0.79,-0.23l-1.48 -2.67c-0.16,-0.28 -0.05,-0.64 0.23,-0.79 0.28,-0.16 0.64,-0.05 0.79,0.23z"/>
   <path class="fil0" d="M27.26 22.19l-1.48 2.67c-0.16,0.28 -0.05,0.64 0.23,0.79 0.28,0.16 0.64,0.05 0.79,-0.23l1.48 -2.67c0.16,-0.28 0.05,-0.64 -0.23,-0.79 -0.28,-0.16 -0.64,-0.05 -0.79,0.23z"/>
   <path class="fil0" d="M27.09 24.31c-3.04,-0.75 -6.55,-1.18 -10.29,-1.18 -3.74,0 -7.25,0.43 -10.29,1.18 5.36,-7.63 16.07,-7.77 20.59,0z"/>
   <path class="fil0" d="M18.19 16.81c-0.96,-0.68 -0.9,-2.28 -0.69,-3.31 0,-0.01 0,-0.02 0.01,-0.03 0.2,-0.81 0.68,-1.45 1.37,-1.9 0.19,-0.12 0.39,-0.23 0.6,-0.31 0.63,-0.27 1.33,-0.39 2.01,-0.42 0.43,-0.02 0.97,-0.01 1.38,0.1 0.6,0.16 1.25,0.5 1.75,0.87 0.82,0.62 1.4,1.47 1.52,2.51 0.11,0.96 -0.18,1.87 -1.06,2.35 -0.34,0.19 -0.81,0.31 -1.2,0.3l-5.2 0c-0.18,0 -0.34,-0.05 -0.49,-0.16z"/>
   <path class="fil0" d="M15.59 16.81c0.96,-0.68 0.9,-2.28 0.69,-3.31 -0,-0.01 -0,-0.02 -0.01,-0.03 -0.2,-0.81 -0.68,-1.45 -1.37,-1.9 -0.19,-0.12 -0.39,-0.23 -0.6,-0.31 -0.63,-0.27 -1.33,-0.39 -2.01,-0.42 -0.43,-0.02 -0.97,-0.01 -1.38,0.1 -0.6,0.16 -1.25,0.5 -1.75,0.87 -0.82,0.62 -1.4,1.47 -1.52,2.51 -0.11,0.96 0.18,1.87 1.06,2.35 0.34,0.19 0.81,0.31 1.2,0.3l5.2 0c0.18,0 0.34,-0.05 0.49,-0.16z"/>
   <path class="fil0" d="M17.49 8.36l0 3.44c0,0.36 0.29,0.66 0.66,0.66 0.36,0 0.66,-0.29 0.66,-0.66l0 -3.44c0,-0.36 -0.29,-0.66 -0.66,-0.66 -0.36,0 -0.66,0.29 -0.66,0.66z"/>
   <path class="fil0" d="M21.38 8.63l-2.24 2.62c-0.23,0.27 -0.2,0.69 0.07,0.93 0.27,0.23 0.69,0.2 0.93,-0.07l2.24 -2.62c0.23,-0.27 0.2,-0.69 -0.07,-0.93 -0.27,-0.23 -0.69,-0.2 -0.93,0.07z"/>
   <path class="fil3" d="M24.6 15.79c0.51,-0.28 0.62,-0.81 0.55,-1.36 -0.09,-0.77 -0.53,-1.37 -1.13,-1.83 -0.39,-0.29 -0.93,-0.58 -1.4,-0.7 -0.3,-0.08 -0.78,-0.08 -1.09,-0.07 -0.56,0.02 -1.15,0.12 -1.66,0.34 -0.7,0.3 -1.2,0.79 -1.39,1.54 -0.11,0.55 -0.24,1.84 0.25,2.26l4.07 0c0.56,0 1.28,0.1 1.79,-0.18z"/>
   <path class="fil3" d="M9.18 15.79c-0.51,-0.28 -0.62,-0.81 -0.55,-1.36 0.09,-0.77 0.53,-1.37 1.13,-1.83 0.39,-0.29 0.93,-0.58 1.4,-0.7 0.3,-0.08 0.78,-0.08 1.09,-0.07 0.56,0.02 1.15,0.12 1.66,0.34 0.7,0.3 1.2,0.79 1.39,1.54 0.11,0.55 0.24,1.84 -0.25,2.26l-4.07 0c-0.56,0 -1.28,0.1 -1.79,-0.18z"/>
  </g>
 </g>
</svg>
