<?xml version="1.0" encoding="UTF-8"?>
<!DOCTYPE svg PUBLIC "-//W3C//DTD SVG 1.1//EN" "http://www.w3.org/Graphics/SVG/1.1/DTD/svg11.dtd">
<!-- Creator: CorelDRAW 2019 (64-Bit) -->
<svg xmlns="http://www.w3.org/2000/svg" xml:space="preserve" width="1.57498in" height="1.57498in" version="1.1" style="shape-rendering:geometricPrecision; text-rendering:geometricPrecision; image-rendering:optimizeQuality; fill-rule:evenodd; clip-rule:evenodd"
viewBox="0 0 35.48 35.48"
 xmlns:xlink="http://www.w3.org/1999/xlink"
 xmlns:xodm="http://www.corel.com/coreldraw/odm/2003">
 <defs>
  <style type="text/css">
   <![CDATA[
    .fil3 {fill:#F5FBFE}
    .fil2 {fill:black}
    .fil1 {fill:#8D5CCC}
    .fil0 {fill:#B778F9}
   ]]>
  </style>
 </defs>
 <g id="Layer_x0020_1">
  <metadata id="CorelCorpID_0Corel-Layer"/>
  <g id="_2689536548592">
   <circle class="fil0" cx="17.74" cy="17.74" r="17.74"/>
   <circle class="fil1" cx="17.74" cy="19.91" r="15.46"/>
   <path class="fil2" d="M6.95 8.12l8.63 2.02c-0.05,2.86 -7.37,6.22 -8.63,-2.02z"/>
   <path class="fil2" d="M28.64 8.12l-8.63 2.02c0.05,2.86 7.37,6.22 8.63,-2.02z"/>
   <path class="fil2" d="M23.33 20.56l-0.87 -3.08c-1.32,-4.69 -7.76,-4.77 -9.03,0l-0.82 3.08c-1.26,4.73 12.02,4.6 10.72,0z"/>
   <path class="fil3" d="M21.37 15.46c-0.44,-0.49 -0.96,-0.86 -1.53,-1.11l0.72 3.1 0.81 -1.99z"/>
   <path class="fil3" d="M16.12 14.28c-0.58,0.24 -1.12,0.61 -1.57,1.1l0.84 2.06 0.74 -3.16z"/>
  </g>
 </g>
</svg>
