<?xml version="1.0" encoding="UTF-8"?>
<!DOCTYPE svg PUBLIC "-//W3C//DTD SVG 1.1//EN" "http://www.w3.org/Graphics/SVG/1.1/DTD/svg11.dtd">
<!-- Creator: CorelDRAW 2019 (64-Bit) -->
<svg xmlns="http://www.w3.org/2000/svg" xml:space="preserve" width="1.52866in" height="1.61207in" version="1.1" style="shape-rendering:geometricPrecision; text-rendering:geometricPrecision; image-rendering:optimizeQuality; fill-rule:evenodd; clip-rule:evenodd"
viewBox="0 0 35.37 37.3"
 xmlns:xlink="http://www.w3.org/1999/xlink"
 xmlns:xodm="http://www.corel.com/coreldraw/odm/2003">
 <defs>
  <style type="text/css">
   <![CDATA[
    .fil0 {fill:black}
    .fil2 {fill:#EEEEEE}
    .fil3 {fill:#F6A391}
    .fil1 {fill:#FEFEFE}
   ]]>
  </style>
 </defs>
 <g id="Layer_x0020_1">
  <metadata id="CorelCorpID_0Corel-Layer"/>
  <g id="_2689590889424">
   <path class="fil0" d="M14.31 1.31c0.38,-0.58 0.92,-1.16 1.65,-1.22 0.81,-0.06 1.37,0.52 1.77,1.24 0.37,-0.61 0.9,-1.24 1.64,-1.32 0.83,-0.09 1.41,0.51 1.83,1.23 0.39,-0.55 0.94,-1.1 1.65,-1.16 0.81,-0.07 1.38,0.47 1.78,1.15 0.38,-0.54 0.91,-1.06 1.6,-1.12 0.82,-0.07 1.39,0.49 1.78,1.18 0.04,-0.05 0.08,-0.1 0.12,-0.15 0.43,-0.54 1.01,-1.04 1.72,-1.1 1.65,-0.13 2.38,2.1 2.72,3.34 1.39,5.14 2.45,10.53 2.73,15.85 0.12,2.39 0.09,4.8 -0.2,7.17 -0.36,2.97 -1.34,5.94 -3.81,7.82 -1.66,1.26 -3.34,1.62 -5.28,2.18 -0.74,0.21 -1.53,0.35 -2.29,0.46 -1.07,0.16 -2.15,0.26 -3.23,0.33 -2.65,0.16 -5.38,0.1 -8.01,-0.25 -2.26,-0.3 -4.59,-0.84 -6.67,-1.79 -0.9,-0.41 -1.71,-0.97 -2.4,-1.67 -4.99,-5.03 -3.36,-16.25 -2.21,-22.59 0.24,-1.3 0.5,-2.59 0.79,-3.88 0.44,-1.92 1.03,-5.64 2.82,-6.72 0.26,-0.16 0.55,-0.27 0.86,-0.29 0.86,-0.07 1.43,0.46 1.81,1.15 0.36,-0.55 0.85,-1.07 1.52,-1.14 0.65,-0.07 1.17,0.29 1.55,0.79 0.11,0.15 0.22,0.31 0.32,0.49 0.36,-0.61 0.88,-1.24 1.62,-1.32 0.83,-0.08 1.41,0.55 1.81,1.3zm-0.68 2.08c-0.16,-0.53 -0.38,-1.19 -0.68,-1.66 -0.05,-0.07 -0.22,-0.32 -0.32,-0.34 -0.19,0.02 -0.55,0.61 -0.63,0.76 -0.22,0.4 -0.43,0.9 -0.57,1.35 -0.08,0.26 -0.31,0.44 -0.59,0.44 -0.28,0 -0.51,-0.17 -0.59,-0.44 -0.17,-0.56 -0.44,-1.34 -0.8,-1.81 -0.04,-0.05 -0.21,-0.26 -0.29,-0.25 -0.2,0.02 -0.54,0.54 -0.63,0.7 -0.23,0.39 -0.44,0.87 -0.58,1.3 -0.09,0.27 -0.34,0.44 -0.62,0.43 -0.28,-0.01 -0.51,-0.21 -0.57,-0.49 -0.06,-0.31 -0.46,-1.99 -0.98,-1.95 -0.09,0.01 -0.19,0.06 -0.26,0.1 -1.23,0.74 -1.87,4.49 -2.18,5.84 -0.29,1.26 -0.55,2.54 -0.78,3.81 -0.6,3.28 -1.09,6.62 -1.17,9.96 -0.11,4.35 0.41,10.71 4.99,12.78 1.96,0.89 4.16,1.39 6.28,1.67 2.54,0.34 5.18,0.4 7.74,0.24 1.04,-0.06 2.08,-0.16 3.11,-0.32 0.69,-0.1 1.43,-0.23 2.1,-0.42 1.73,-0.5 3.35,-0.83 4.82,-1.95 2.15,-1.63 2.95,-4.31 3.27,-6.88 0.28,-2.29 0.31,-4.63 0.19,-6.93 -0.27,-5.22 -1.32,-10.52 -2.68,-15.56 -0.17,-0.62 -0.44,-1.49 -0.84,-2.01 -0.09,-0.12 -0.27,-0.32 -0.44,-0.31 -0.54,0.04 -1.29,1.36 -1.5,1.83 -0.11,0.24 -0.34,0.38 -0.6,0.37 -0.26,-0.01 -0.48,-0.18 -0.55,-0.43 -0.15,-0.47 -0.38,-1.12 -0.69,-1.5 -0.04,-0.05 -0.18,-0.21 -0.26,-0.2 -0.2,0.02 -0.51,0.42 -0.61,0.57 -0.24,0.34 -0.47,0.78 -0.62,1.17 -0.1,0.25 -0.33,0.4 -0.6,0.39 -0.27,-0.01 -0.49,-0.18 -0.57,-0.43 -0.15,-0.47 -0.38,-1.14 -0.7,-1.53 -0.05,-0.06 -0.19,-0.22 -0.28,-0.21 -0.21,0.02 -0.53,0.43 -0.64,0.58 -0.25,0.35 -0.49,0.8 -0.64,1.19 -0.1,0.25 -0.33,0.4 -0.59,0.39 -0.26,-0.01 -0.49,-0.17 -0.57,-0.42 -0.16,-0.5 -0.42,-1.19 -0.75,-1.6 -0.03,-0.04 -0.19,-0.22 -0.26,-0.22 -0.21,0.02 -0.57,0.6 -0.67,0.77 -0.23,0.41 -0.45,0.92 -0.59,1.38 -0.08,0.27 -0.32,0.44 -0.6,0.43 -0.28,-0 -0.51,-0.19 -0.58,-0.45 -0.15,-0.55 -0.39,-1.33 -0.73,-1.8 -0.03,-0.05 -0.2,-0.26 -0.27,-0.25 -0.2,0.02 -0.55,0.52 -0.65,0.68 -0.24,0.38 -0.47,0.85 -0.62,1.28 -0.09,0.26 -0.33,0.42 -0.6,0.41 -0.27,-0.01 -0.5,-0.18 -0.57,-0.44z"/>
   <path class="fil1" d="M13.63 3.39c-0.16,-0.53 -0.38,-1.19 -0.68,-1.66 -0.05,-0.07 -0.22,-0.32 -0.32,-0.34 -0.19,0.02 -0.55,0.61 -0.63,0.76 -0.22,0.4 -0.43,0.9 -0.57,1.35 -0.08,0.26 -0.31,0.44 -0.59,0.44 -0.28,0 -0.51,-0.17 -0.59,-0.44 -0.17,-0.56 -0.44,-1.34 -0.8,-1.81 -0.04,-0.05 -0.21,-0.26 -0.29,-0.25 -0.2,0.02 -0.54,0.54 -0.63,0.7 -0.23,0.39 -0.44,0.87 -0.58,1.3 -0.09,0.27 -0.34,0.44 -0.62,0.43 -0.28,-0.01 -0.51,-0.21 -0.57,-0.49 -0.06,-0.31 -0.46,-1.99 -0.98,-1.95 -0.09,0.01 -0.19,0.06 -0.26,0.1 -1.23,0.74 -1.87,4.49 -2.18,5.84 -0.29,1.26 -0.55,2.54 -0.78,3.81 -0.6,3.28 -1.09,6.62 -1.17,9.96 -0.11,4.35 0.41,10.71 4.99,12.78 1.96,0.89 4.16,1.39 6.28,1.67 2.54,0.34 5.18,0.4 7.74,0.24 1.04,-0.06 2.08,-0.16 3.11,-0.32 0.69,-0.1 1.43,-0.23 2.1,-0.42 1.73,-0.5 3.35,-0.83 4.82,-1.95 2.15,-1.63 2.95,-4.31 3.27,-6.88 0.28,-2.29 0.31,-4.63 0.19,-6.93 -0.27,-5.22 -1.32,-10.52 -2.68,-15.56 -0.17,-0.62 -0.44,-1.49 -0.84,-2.01 -0.09,-0.12 -0.27,-0.32 -0.44,-0.31 -0.54,0.04 -1.29,1.36 -1.5,1.83 -0.11,0.24 -0.34,0.38 -0.6,0.37 -0.26,-0.01 -0.48,-0.18 -0.55,-0.43 -0.15,-0.47 -0.38,-1.12 -0.69,-1.5 -0.04,-0.05 -0.18,-0.21 -0.26,-0.2 -0.2,0.02 -0.51,0.42 -0.61,0.57 -0.24,0.34 -0.47,0.78 -0.62,1.17 -0.1,0.25 -0.33,0.4 -0.6,0.39 -0.27,-0.01 -0.49,-0.18 -0.57,-0.43 -0.15,-0.47 -0.38,-1.14 -0.7,-1.53 -0.05,-0.06 -0.19,-0.22 -0.28,-0.21 -0.21,0.02 -0.53,0.43 -0.64,0.58 -0.25,0.35 -0.49,0.8 -0.64,1.19 -0.1,0.25 -0.33,0.4 -0.59,0.39 -0.26,-0.01 -0.49,-0.17 -0.57,-0.42 -0.16,-0.5 -0.42,-1.19 -0.75,-1.6 -0.03,-0.04 -0.19,-0.22 -0.26,-0.22 -0.21,0.02 -0.57,0.6 -0.67,0.77 -0.23,0.41 -0.45,0.92 -0.59,1.38 -0.08,0.27 -0.32,0.44 -0.6,0.43 -0.28,-0 -0.51,-0.19 -0.58,-0.45 -0.15,-0.55 -0.39,-1.33 -0.73,-1.8 -0.03,-0.05 -0.2,-0.26 -0.27,-0.25 -0.2,0.02 -0.55,0.52 -0.65,0.68 -0.24,0.38 -0.47,0.85 -0.62,1.28 -0.09,0.26 -0.33,0.42 -0.6,0.41 -0.27,-0.01 -0.5,-0.18 -0.57,-0.44z"/>
   <path class="fil2" d="M4.14 32.25c0.61,0.69 1.35,1.26 2.25,1.67 1.96,0.89 4.16,1.39 6.28,1.67 2.54,0.34 5.18,0.4 7.74,0.24 1.04,-0.06 2.08,-0.16 3.11,-0.32 0.69,-0.1 1.43,-0.23 2.1,-0.42 1.73,-0.5 3.35,-0.83 4.82,-1.95 2.15,-1.63 2.95,-4.31 3.27,-6.88 0.06,-0.47 0.1,-0.93 0.14,-1.4l0.01 -0.08c0.14,-1.82 0.14,-3.64 0.04,-5.46 -0.02,-0.41 -0.05,-0.82 -0.08,-1.23l-0.02 -0.22c-0.37,-4.74 -1.35,-9.52 -2.59,-14.09 -0.17,-0.62 -0.44,-1.49 -0.84,-2.01 -0.09,-0.12 -0.27,-0.32 -0.44,-0.31l-0 0c1.19,4.68 2.08,9.54 2.33,14.34 0.12,2.39 0.09,4.8 -0.2,7.17 -0.36,2.97 -1.34,5.94 -3.81,7.82 -1.66,1.26 -3.34,1.62 -5.28,2.18 -0.74,0.21 -1.53,0.35 -2.29,0.46 -1.07,0.16 -2.15,0.26 -3.23,0.33 -2.65,0.16 -5.38,0.1 -8.01,-0.25 -1.79,-0.24 -3.62,-0.63 -5.34,-1.25z"/>
   <circle class="fil3" cx="28.1" cy="24.92" r="2.81"/>
   <circle class="fil3" cx="7.27" cy="24.92" r="2.81"/>
   <g>
    <path class="fil0" d="M9.75 8.04c0.52,-0.19 1.19,-0.31 1.74,-0.37 1.36,-0.15 2.75,-0.03 4.07,0.35 0.37,0.11 0.58,0.49 0.47,0.86 -0.11,0.37 -0.49,0.58 -0.86,0.47 -1.14,-0.33 -2.35,-0.44 -3.53,-0.3 -0.43,0.05 -1,0.14 -1.41,0.29 -0.36,0.13 -0.76,-0.06 -0.89,-0.41 -0.13,-0.36 0.06,-0.76 0.41,-0.89z"/>
    <path class="fil0" d="M20.23 8.04c0.52,-0.19 1.19,-0.31 1.74,-0.37 1.36,-0.15 2.75,-0.03 4.07,0.35 0.37,0.11 0.58,0.49 0.47,0.86 -0.11,0.37 -0.49,0.58 -0.86,0.47 -1.14,-0.33 -2.35,-0.44 -3.53,-0.3 -0.43,0.05 -1,0.14 -1.41,0.29 -0.36,0.13 -0.76,-0.06 -0.89,-0.41 -0.13,-0.36 0.06,-0.76 0.41,-0.89z"/>
    <path class="fil0" d="M13.53 15.02l0 4.22c0,0.38 -0.31,0.69 -0.69,0.69 -0.38,0 -0.69,-0.31 -0.69,-0.69l0 -4.22c0,-0.38 0.31,-0.69 0.69,-0.69 0.38,0 0.69,0.31 0.69,0.69z"/>
    <path class="fil0" d="M23.39 15.02l0 4.22c0,0.38 -0.31,0.69 -0.69,0.69 -0.38,0 -0.69,-0.31 -0.69,-0.69l0 -4.22c0,-0.38 0.31,-0.69 0.69,-0.69 0.38,0 0.69,0.31 0.69,0.69z"/>
    <path class="fil0" d="M12.76 10.97c2.7,0 4.88,2.65 4.88,5.92 0,3.27 -2.19,5.92 -4.88,5.92 -2.7,0 -4.88,-2.65 -4.88,-5.92 0,-3.27 2.19,-5.92 4.88,-5.92zm0 1c2.14,0 3.88,2.2 3.88,4.91 0,2.71 -1.74,4.91 -3.88,4.91 -2.14,0 -3.88,-2.2 -3.88,-4.91 0,-2.71 1.74,-4.91 3.88,-4.91z"/>
    <path class="fil0" d="M22.78 10.97c2.6,0 4.71,2.65 4.71,5.92 0,3.27 -2.11,5.92 -4.71,5.92 -2.6,0 -4.71,-2.65 -4.71,-5.92 0,-3.27 2.11,-5.92 4.71,-5.92zm0 1c2.07,0 3.74,2.2 3.74,4.91 0,2.71 -1.68,4.91 -3.74,4.91 -2.07,0 -3.74,-2.2 -3.74,-4.91 0,-2.71 1.68,-4.91 3.74,-4.91z"/>
    <path class="fil0" d="M14.26 24.42c0.04,0.1 0.1,0.2 0.16,0.3 0.69,1.04 2.38,1.35 3.54,1.35 0.84,0 1.76,-0.14 2.53,-0.48 0.49,-0.21 1.07,-0.58 1.25,-1.12 0.14,-0.4 0.58,-0.62 0.98,-0.48 0.4,0.14 0.62,0.58 0.48,0.98 -0.67,1.99 -3.38,2.65 -5.24,2.65 -1.91,-0 -4.31,-0.66 -5.12,-2.6 -0.16,-0.39 0.02,-0.85 0.42,-1.01 0.39,-0.16 0.85,0.02 1.01,0.42z"/>
   </g>
  </g>
 </g>
</svg>
