<?xml version="1.0" encoding="UTF-8"?>
<!DOCTYPE svg PUBLIC "-//W3C//DTD SVG 1.1//EN" "http://www.w3.org/Graphics/SVG/1.1/DTD/svg11.dtd">
<!-- Creator: CorelDRAW 2019 (64-Bit) -->
<svg xmlns="http://www.w3.org/2000/svg" xml:space="preserve" width="1.57498in" height="1.57498in" version="1.1" style="shape-rendering:geometricPrecision; text-rendering:geometricPrecision; image-rendering:optimizeQuality; fill-rule:evenodd; clip-rule:evenodd"
viewBox="0 0 37.52 37.52"
 xmlns:xlink="http://www.w3.org/1999/xlink"
 xmlns:xodm="http://www.corel.com/coreldraw/odm/2003">
 <defs>
  <style type="text/css">
   <![CDATA[
    .fil1 {fill:black}
    .fil0 {fill:#02C6B3}
    .fil2 {fill:#FEFEFE}
   ]]>
  </style>
 </defs>
 <g id="Layer_x0020_1">
  <metadata id="CorelCorpID_0Corel-Layer"/>
  <g id="_2689600708224">
   <circle class="fil0" cx="18.76" cy="18.76" r="18.76"/>
   <path class="fil1" d="M19.48 23.52c0.43,-0.47 1.23,-0.9 1.8,-1.14 1.75,-0.73 3.81,-0.91 5.69,-0.83 0.44,0.02 0.78,0.39 0.76,0.82 -0.02,0.44 -0.39,0.78 -0.82,0.76 -1.6,-0.06 -3.41,0.07 -4.91,0.67 -0.39,0.16 -1.05,0.47 -1.34,0.79 -0.29,0.32 -0.8,0.35 -1.12,0.05 -0.32,-0.29 -0.35,-0.8 -0.05,-1.12z"/>
   <path class="fil1" d="M22.51 14.78l8.98 0c0.44,0 0.79,0.36 0.79,0.79 0,0.37 -0.26,0.69 -0.61,0.77 0.01,0.1 0.02,0.19 0.02,0.29 0,1.45 -1.17,2.62 -2.62,2.62 -1.45,0 -2.62,-1.17 -2.62,-2.62 0,-0.09 0,-0.18 0.01,-0.27l-3.96 0c-0.44,0 -0.79,-0.36 -0.79,-0.79 0,-0.44 0.36,-0.79 0.79,-0.79z"/>
   <path class="fil1" d="M6.58 14.78l8.98 0c0.44,0 0.79,0.36 0.79,0.79 0,0.37 -0.26,0.69 -0.61,0.77 0.01,0.1 0.02,0.19 0.02,0.29 0,1.45 -1.17,2.62 -2.62,2.62 -1.45,0 -2.62,-1.17 -2.62,-2.62 0,-0.09 0,-0.18 0.01,-0.27l-3.96 0c-0.44,0 -0.79,-0.36 -0.79,-0.79 0,-0.44 0.36,-0.79 0.79,-0.79z"/>
   <path class="fil2" d="M4.13 11.54c0,0 -3.23,4.39 -2.68,7.37 0.66,3.63 5.31,4.24 5.68,-0.32 0.25,-3.05 -3,-7.05 -3,-7.05z"/>
  </g>
 </g>
</svg>
