<?xml version="1.0" encoding="UTF-8"?>
<!DOCTYPE svg PUBLIC "-//W3C//DTD SVG 1.1//EN" "http://www.w3.org/Graphics/SVG/1.1/DTD/svg11.dtd">
<!-- Creator: CorelDRAW 2019 (64-Bit) -->
<svg xmlns="http://www.w3.org/2000/svg" xml:space="preserve" width="1.54609in" height="1.61207in" version="1.1" style="shape-rendering:geometricPrecision; text-rendering:geometricPrecision; image-rendering:optimizeQuality; fill-rule:evenodd; clip-rule:evenodd"
viewBox="0 0 36.17 37.71"
 xmlns:xlink="http://www.w3.org/1999/xlink"
 xmlns:xodm="http://www.corel.com/coreldraw/odm/2003">
 <defs>
  <style type="text/css">
   <![CDATA[
    .str0 {stroke:#2B2A29;stroke-width:0.16;stroke-miterlimit:2.61313}
    .fil0 {fill:black}
    .fil3 {fill:#4898D3}
    .fil1 {fill:#E1E1E1}
    .fil2 {fill:#FEFEFE}
   ]]>
  </style>
 </defs>
 <g id="Layer_x0020_1">
  <metadata id="CorelCorpID_0Corel-Layer"/>
  <g id="_2689590945360">
   <path class="fil0" d="M14.47 1.32c0.39,-0.58 0.93,-1.18 1.67,-1.23 0.82,-0.06 1.39,0.53 1.79,1.26 0.37,-0.62 0.91,-1.25 1.66,-1.33 0.84,-0.09 1.43,0.52 1.85,1.25 0.4,-0.56 0.95,-1.11 1.67,-1.17 0.82,-0.07 1.39,0.48 1.8,1.16 0.39,-0.54 0.92,-1.07 1.62,-1.13 0.83,-0.07 1.4,0.49 1.8,1.19 0.04,-0.05 0.08,-0.1 0.12,-0.15 0.43,-0.54 1.02,-1.05 1.74,-1.11 1.67,-0.13 2.41,2.13 2.75,3.38 1.41,5.2 2.48,10.65 2.76,16.03 0.13,2.41 0.09,4.85 -0.2,7.25 -0.37,3 -1.35,6 -3.85,7.9 -1.68,1.28 -3.38,1.64 -5.34,2.21 -0.75,0.22 -1.55,0.36 -2.31,0.47 -1.08,0.16 -2.17,0.26 -3.26,0.33 -2.68,0.16 -5.44,0.1 -8.1,-0.25 -2.29,-0.31 -4.64,-0.85 -6.75,-1.81 -0.91,-0.41 -1.73,-0.98 -2.43,-1.69 -5.05,-5.09 -3.4,-16.43 -2.23,-22.84 0.24,-1.31 0.5,-2.62 0.8,-3.92 0.45,-1.94 1.04,-5.7 2.85,-6.79 0.27,-0.16 0.56,-0.27 0.87,-0.3 0.87,-0.07 1.44,0.46 1.83,1.17 0.36,-0.55 0.86,-1.08 1.54,-1.15 0.66,-0.07 1.18,0.3 1.57,0.79 0.12,0.15 0.22,0.32 0.32,0.49 0.36,-0.62 0.89,-1.26 1.64,-1.33 0.84,-0.08 1.42,0.55 1.83,1.31zm-0.69 2.11c-0.16,-0.54 -0.38,-1.2 -0.69,-1.68 -0.05,-0.07 -0.23,-0.33 -0.32,-0.35 -0.19,0.02 -0.55,0.61 -0.63,0.76 -0.23,0.41 -0.44,0.91 -0.58,1.36 -0.08,0.27 -0.32,0.44 -0.6,0.44 -0.28,0 -0.51,-0.17 -0.6,-0.44 -0.17,-0.57 -0.45,-1.36 -0.81,-1.83 -0.04,-0.05 -0.22,-0.26 -0.29,-0.25 -0.2,0.02 -0.54,0.55 -0.63,0.71 -0.23,0.39 -0.44,0.88 -0.58,1.32 -0.09,0.27 -0.34,0.45 -0.63,0.43 -0.29,-0.01 -0.52,-0.21 -0.58,-0.49 -0.07,-0.31 -0.47,-2.01 -0.99,-1.97 -0.09,0.01 -0.19,0.06 -0.26,0.1 -1.24,0.74 -1.9,4.54 -2.21,5.9 -0.29,1.28 -0.55,2.57 -0.79,3.86 -0.61,3.32 -1.1,6.7 -1.18,10.07 -0.11,4.4 0.41,10.82 5.04,12.92 1.98,0.9 4.2,1.41 6.35,1.69 2.57,0.34 5.24,0.4 7.83,0.24 1.05,-0.06 2.1,-0.17 3.15,-0.32 0.7,-0.1 1.45,-0.23 2.13,-0.43 1.75,-0.51 3.38,-0.84 4.88,-1.97 2.17,-1.65 2.99,-4.36 3.3,-6.96 0.28,-2.32 0.32,-4.68 0.19,-7.01 -0.28,-5.28 -1.33,-10.64 -2.71,-15.74 -0.17,-0.63 -0.44,-1.51 -0.84,-2.03 -0.09,-0.12 -0.27,-0.33 -0.44,-0.31 -0.54,0.04 -1.3,1.38 -1.51,1.85 -0.11,0.24 -0.34,0.39 -0.61,0.37 -0.26,-0.01 -0.48,-0.18 -0.56,-0.44 -0.15,-0.47 -0.38,-1.13 -0.7,-1.52 -0.04,-0.05 -0.18,-0.21 -0.27,-0.2 -0.2,0.02 -0.52,0.43 -0.62,0.58 -0.24,0.34 -0.47,0.79 -0.63,1.18 -0.1,0.25 -0.33,0.41 -0.6,0.4 -0.27,-0.01 -0.49,-0.18 -0.57,-0.44 -0.15,-0.48 -0.39,-1.15 -0.71,-1.54 -0.05,-0.06 -0.19,-0.22 -0.29,-0.21 -0.21,0.02 -0.54,0.43 -0.65,0.59 -0.25,0.35 -0.49,0.81 -0.65,1.21 -0.1,0.25 -0.33,0.4 -0.6,0.4 -0.27,-0.01 -0.49,-0.17 -0.57,-0.43 -0.16,-0.5 -0.42,-1.2 -0.76,-1.62 -0.03,-0.04 -0.2,-0.23 -0.26,-0.22 -0.22,0.02 -0.58,0.61 -0.68,0.78 -0.24,0.42 -0.46,0.93 -0.6,1.4 -0.08,0.27 -0.33,0.44 -0.61,0.44 -0.28,-0 -0.52,-0.19 -0.59,-0.46 -0.15,-0.56 -0.4,-1.34 -0.74,-1.82 -0.03,-0.05 -0.2,-0.26 -0.28,-0.25 -0.2,0.02 -0.56,0.53 -0.66,0.68 -0.24,0.38 -0.47,0.86 -0.62,1.29 -0.09,0.26 -0.33,0.42 -0.6,0.41 -0.27,-0.01 -0.5,-0.18 -0.58,-0.45z"/>
   <path class="fil1" d="M13.78 3.43c-0.16,-0.54 -0.38,-1.2 -0.69,-1.68 -0.05,-0.07 -0.23,-0.33 -0.32,-0.35 -0.19,0.02 -0.55,0.61 -0.63,0.76 -0.23,0.41 -0.44,0.91 -0.58,1.36 -0.08,0.27 -0.32,0.44 -0.6,0.44 -0.28,0 -0.51,-0.17 -0.6,-0.44 -0.17,-0.57 -0.45,-1.36 -0.81,-1.83 -0.04,-0.05 -0.22,-0.26 -0.29,-0.25 -0.2,0.02 -0.54,0.55 -0.63,0.71 -0.23,0.39 -0.44,0.88 -0.58,1.32 -0.09,0.27 -0.34,0.45 -0.63,0.43 -0.29,-0.01 -0.52,-0.21 -0.58,-0.49 -0.07,-0.31 -0.47,-2.01 -0.99,-1.97 -0.09,0.01 -0.19,0.06 -0.26,0.1 -1.24,0.74 -1.9,4.54 -2.21,5.9 -0.29,1.28 -0.55,2.57 -0.79,3.86 -0.61,3.32 -1.1,6.7 -1.18,10.07 -0.11,4.4 0.41,10.82 5.04,12.92 1.98,0.9 4.2,1.41 6.35,1.69 2.57,0.34 5.24,0.4 7.83,0.24 1.05,-0.06 2.1,-0.17 3.15,-0.32 0.7,-0.1 1.45,-0.23 2.13,-0.43 1.75,-0.51 3.38,-0.84 4.88,-1.97 2.17,-1.65 2.99,-4.36 3.3,-6.96 0.28,-2.32 0.32,-4.68 0.19,-7.01 -0.28,-5.28 -1.33,-10.64 -2.71,-15.74 -0.17,-0.63 -0.44,-1.51 -0.84,-2.03 -0.09,-0.12 -0.27,-0.33 -0.44,-0.31 -0.54,0.04 -1.3,1.38 -1.51,1.85 -0.11,0.24 -0.34,0.39 -0.61,0.37 -0.26,-0.01 -0.48,-0.18 -0.56,-0.44 -0.15,-0.47 -0.38,-1.13 -0.7,-1.52 -0.04,-0.05 -0.18,-0.21 -0.27,-0.2 -0.2,0.02 -0.52,0.43 -0.62,0.58 -0.24,0.34 -0.47,0.79 -0.63,1.18 -0.1,0.25 -0.33,0.41 -0.6,0.4 -0.27,-0.01 -0.49,-0.18 -0.57,-0.44 -0.15,-0.48 -0.39,-1.15 -0.71,-1.54 -0.05,-0.06 -0.19,-0.22 -0.29,-0.21 -0.21,0.02 -0.54,0.43 -0.65,0.59 -0.25,0.35 -0.49,0.81 -0.65,1.21 -0.1,0.25 -0.33,0.4 -0.6,0.4 -0.27,-0.01 -0.49,-0.17 -0.57,-0.43 -0.16,-0.5 -0.42,-1.2 -0.76,-1.62 -0.03,-0.04 -0.2,-0.23 -0.26,-0.22 -0.22,0.02 -0.58,0.61 -0.68,0.78 -0.24,0.42 -0.46,0.93 -0.6,1.4 -0.08,0.27 -0.33,0.44 -0.61,0.44 -0.28,-0 -0.52,-0.19 -0.59,-0.46 -0.15,-0.56 -0.4,-1.34 -0.74,-1.82 -0.03,-0.05 -0.2,-0.26 -0.28,-0.25 -0.2,0.02 -0.56,0.53 -0.66,0.68 -0.24,0.38 -0.47,0.86 -0.62,1.29 -0.09,0.26 -0.33,0.42 -0.6,0.41 -0.27,-0.01 -0.5,-0.18 -0.58,-0.45z"/>
   <path class="fil2" d="M4.18 32.6c0.62,0.7 1.37,1.28 2.28,1.69 1.98,0.9 4.2,1.41 6.35,1.69 2.57,0.34 5.24,0.4 7.83,0.24 1.05,-0.06 2.1,-0.17 3.15,-0.32 0.7,-0.1 1.45,-0.23 2.13,-0.43 1.75,-0.51 3.38,-0.84 4.88,-1.97 2.17,-1.65 2.99,-4.36 3.3,-6.96 0.06,-0.47 0.11,-0.94 0.14,-1.42l0.01 -0.08c0.14,-1.84 0.14,-3.69 0.04,-5.52 -0.02,-0.42 -0.05,-0.83 -0.08,-1.25l-0.02 -0.22c-0.38,-4.8 -1.37,-9.63 -2.62,-14.25 -0.17,-0.63 -0.44,-1.51 -0.84,-2.03 -0.09,-0.12 -0.27,-0.33 -0.44,-0.31l-0 0c1.21,4.73 2.11,9.65 2.36,14.5 0.13,2.41 0.09,4.85 -0.2,7.25 -0.37,3 -1.35,6 -3.85,7.9 -1.68,1.28 -3.38,1.64 -5.34,2.21 -0.75,0.22 -1.55,0.36 -2.31,0.47 -1.08,0.16 -2.17,0.26 -3.26,0.33 -2.68,0.16 -5.44,0.1 -8.1,-0.25 -1.81,-0.24 -3.66,-0.63 -5.4,-1.26z"/>
   <path class="fil0 str0" d="M14.49 22.39l5.9 0c1.07,0 1.95,0.84 1.95,1.86l0 4.08c0,1.02 -1.14,2.53 -1.95,1.86 -1.97,-1.63 -3.93,-1.6 -5.9,0 -0.82,0.66 -1.95,-0.84 -1.95,-1.86l0 -4.08c0,-1.02 0.88,-1.86 1.95,-1.86z"/>
   <path class="fil0" d="M11.55 11.25c2.1,0 3.8,2.02 3.8,4.52 0,2.5 -1.7,4.52 -3.8,4.52 -2.1,0 -3.8,-2.02 -3.8,-4.52 0,-2.5 1.7,-4.52 3.8,-4.52z"/>
   <path class="fil0" d="M23.78 8.69c2.72,0 4.92,2.79 4.92,6.23 0,3.44 -2.2,6.23 -4.92,6.23 -2.72,0 -4.92,-2.79 -4.92,-6.23 0,-3.44 2.2,-6.23 4.92,-6.23z"/>
   <path class="fil2" d="M11.55 12.5c1.41,0 2.55,1.47 2.55,3.27 0,1.81 -1.14,3.27 -2.55,3.27 -1.41,0 -2.55,-1.47 -2.55,-3.27 0,-1.81 1.14,-3.27 2.55,-3.27z"/>
   <path class="fil2" d="M23.78 9.94c2.03,0 3.68,2.23 3.68,4.98 0,2.75 -1.65,4.98 -3.68,4.98 -2.03,0 -3.68,-2.23 -3.68,-4.98 0,-2.75 1.65,-4.98 3.68,-4.98z"/>
   <path class="fil3" d="M33.03 1.4c0,0 -4.85,9.59 -4.01,13.55 0.84,3.96 5.02,3.16 6.26,1.35 1.25,-1.81 1.72,-5.23 -2.25,-14.9z"/>
   <ellipse class="fil2" transform="matrix(0.935506 0.353312 -0.353312 0.935506 34.193 13.5446)" rx="1.06" ry="1.5"/>
  </g>
 </g>
</svg>
